<?xml version="1.0" encoding="UTF-8"?>
<svg id="Layer_1" data-name="Layer 1" xmlns="http://www.w3.org/2000/svg" xmlns:xlink="http://www.w3.org/1999/xlink" viewBox="0 0 320 320">
  <defs>
    <style>
      .cls-1 {
        fill: #bcbec0;
      }

      .cls-1, .cls-2, .cls-3, .cls-4, .cls-5, .cls-6, .cls-7, .cls-8, .cls-9, .cls-10, .cls-11, .cls-12, .cls-13, .cls-14, .cls-15, .cls-16 {
        stroke-width: 0px;
      }

      .cls-2 {
        fill: url(#linear-gradient-12);
      }

      .cls-3 {
        fill: url(#linear-gradient);
      }

      .cls-4 {
        fill: url(#linear-gradient-6);
      }

      .cls-5 {
        fill: url(#linear-gradient-15);
      }

      .cls-6 {
        fill: url(#linear-gradient-11);
      }

      .cls-7 {
        fill: url(#linear-gradient-5);
      }

      .cls-8 {
        fill: url(#linear-gradient-13);
      }

      .cls-9 {
        fill: url(#linear-gradient-14);
      }

      .cls-10 {
        fill: url(#linear-gradient-2);
      }

      .cls-11 {
        fill: url(#linear-gradient-7);
      }

      .cls-12 {
        fill: url(#linear-gradient-3);
      }

      .cls-13 {
        fill: url(#linear-gradient-9);
      }

      .cls-14 {
        fill: url(#linear-gradient-8);
      }

      .cls-15 {
        fill: url(#linear-gradient-10);
      }

      .cls-16 {
        fill: url(#linear-gradient-4);
      }
    </style>
    <linearGradient id="linear-gradient" x1="89.49" y1="135.56" x2="94.88" y2="135.56" gradientUnits="userSpaceOnUse">
      <stop offset="0" stop-color="#4b1138"/>
      <stop offset=".99" stop-color="#9e277f"/>
    </linearGradient>
    <linearGradient id="linear-gradient-2" x1="111.74" y1="81.02" x2="148.13" y2="81.02" xlink:href="#linear-gradient"/>
    <linearGradient id="linear-gradient-3" x1="95.55" y1="125.43" x2="223.17" y2="125.43" xlink:href="#linear-gradient"/>
    <linearGradient id="linear-gradient-4" x1="223.84" y1="135.56" x2="229.23" y2="135.56" xlink:href="#linear-gradient"/>
    <linearGradient id="linear-gradient-5" x1="170.59" y1="81.03" x2="206.98" y2="81.03" xlink:href="#linear-gradient"/>
    <linearGradient id="linear-gradient-6" x1="73.64" y1="205.18" x2="103.72" y2="205.18" xlink:href="#linear-gradient"/>
    <linearGradient id="linear-gradient-7" x1="116.51" y1="204.96" x2="140.17" y2="204.96" xlink:href="#linear-gradient"/>
    <linearGradient id="linear-gradient-8" x1="153.51" y1="204.96" x2="165.35" y2="204.96" xlink:href="#linear-gradient"/>
    <linearGradient id="linear-gradient-9" x1="178.42" y1="204.96" x2="205.89" y2="204.96" xlink:href="#linear-gradient"/>
    <linearGradient id="linear-gradient-10" x1="218.33" y1="204.96" x2="245.38" y2="204.96" xlink:href="#linear-gradient"/>
    <linearGradient id="linear-gradient-11" x1="69.46" y1="251.3" x2="97.52" y2="251.3" xlink:href="#linear-gradient"/>
    <linearGradient id="linear-gradient-12" x1="110.17" y1="251.3" x2="137.64" y2="251.3" xlink:href="#linear-gradient"/>
    <linearGradient id="linear-gradient-13" x1="150.08" y1="251.3" x2="177.13" y2="251.3" xlink:href="#linear-gradient"/>
    <linearGradient id="linear-gradient-14" x1="190.3" y1="251.62" x2="219.75" y2="251.62" xlink:href="#linear-gradient"/>
    <linearGradient id="linear-gradient-15" x1="232.23" y1="251.3" x2="253.27" y2="251.3" xlink:href="#linear-gradient"/>
  </defs>
  <path class="cls-1" d="M132.18,50.33c12.49-13.45,46.1-8.16,57.39,0,36.5,8.16,43.94,32.65,43.94,32.65,0,0,10.08,6.48,14.89,22.81,4.8,16.33.72,31.45.72,31.45,0,0,2.88,6.24,2.88,13.07-.96,14.27-20.89,12.14-44.9,12.62-24.01.48-21.61.96-28.57,4.8-6.96,3.84-4.8,23.77-4.8,23.77h-28.71s2.16-19.93-4.8-23.77c-6.96-3.84-4.56-4.32-28.57-4.8-24.01-.48-43.94,1.65-44.9-12.62,0-6.83,2.88-13.07,2.88-13.07,0,0-4.08-15.13.72-31.45,4.8-16.33,14.89-22.81,14.89-22.81,0,0,7.44-24.49,43.94-32.65,11.28-8.16,44.9-13.45,57.39,0"/>
  <g>
    <path class="cls-3" d="M92.85,146.75c-.53-7.8-2.52-15.37,2.03-22.38-7.57,4.45-6.13,16.01-2.03,22.38Z"/>
    <path class="cls-10" d="M148.13,71.7c-16.23-6.64-25.91,10.71-36.39,20.12,13.63-6.68,18.6-22.53,36.39-20.12Z"/>
    <path class="cls-12" d="M194.84,131c14.29-11.3,37.54-18.71,24.49-41.51,11.9,23.13-11.09,28.81-25.94,39.75-12.53,10.8-22.62,23.66-32.19,36.93l-.25-14.5.32.21c5.75-9.17,11.97-18.5,19.7-25.94,8.48-6.77,22.56-11.89,14.44-25.31,2.34,4.89,2.85,11.42-1.86,14.72-13.04,6.85-23.95,17.29-32.73,29.22l-1.47-85.21-1.48,85.45c-5.57-7.43-11.45-14.56-18.7-20.64-8.79-6.15-22.99-10.08-15.89-23.54-2.66,4.58-3.79,11.55,1.09,15.56,14.26,8.94,24.63,21.08,33.05,35.69l.32-.21-.25,14.5c-9.56-13.26-19.65-26.13-32.19-36.93-14.86-10.96-37.83-16.58-25.94-39.75-13.05,22.77,10.21,30.24,24.49,41.52,5.59,5.23,10.7,11.01,15.49,17.08-7.02,1.31-14.8.86-21.25-2.58-3.55-2.01-6.93-4.85-10.02-7.73-3.14-2.46-5.66-7.55-10.45-6.84,4.71-.3,6.63,4.8,9.63,7.63,8.27,10.72,21.68,15.92,35.15,13.49,5.3,7.05,10.21,14.43,14.97,21.77l-.31,17.69h4.57l-.31-17.69c4.76-7.35,9.67-14.72,14.97-21.77,13.46,2.43,26.87-2.77,35.15-13.49,3-2.84,4.92-7.93,9.63-7.63-4.79-.71-7.32,4.38-10.45,6.84-8.01,8.75-19.93,12.75-31.32,10.38,4.8-6.1,9.92-11.89,15.54-17.14Z"/>
    <path class="cls-16" d="M223.84,124.37c4.56,7,2.56,14.58,2.03,22.38,4.09-6.38,5.53-17.93-2.03-22.38Z"/>
    <path class="cls-7" d="M206.98,91.82c-10.5-9.42-20.15-26.75-36.39-20.12,17.79-2.42,22.77,13.44,36.39,20.12Z"/>
  </g>
  <g>
    <path class="cls-4" d="M73.64,191.15h7.49l16.88,20.71v-15.92c0-1.7-.19-2.76-.57-3.18-.5-.57-1.3-.86-2.38-.86h-.96v-.75h9.61v.75h-.98c-1.17,0-2,.35-2.49,1.06-.3.43-.45,1.43-.45,2.97v23.28h-.73l-18.21-22.24v17c0,1.7.18,2.76.55,3.18.52.57,1.31.85,2.38.85h.98v.75h-9.61v-.75h.96c1.18,0,2.02-.35,2.5-1.06.3-.43.45-1.43.45-2.97v-19.2c-.8-.94-1.41-1.55-1.82-1.85s-1.02-.58-1.82-.83c-.39-.12-.99-.18-1.79-.18v-.75Z"/>
    <path class="cls-11" d="M124.37,192.66v10.92h6.07c1.58,0,2.63-.24,3.16-.71.71-.62,1.1-1.72,1.18-3.3h.75v9.61h-.75c-.19-1.34-.38-2.21-.57-2.59-.24-.47-.64-.85-1.2-1.12s-1.41-.41-2.57-.41h-6.07v9.1c0,1.22.05,1.97.16,2.23s.3.47.57.63.79.23,1.55.23h4.68c1.56,0,2.69-.11,3.4-.33.71-.22,1.38-.64,2.04-1.28.84-.84,1.7-2.11,2.59-3.81h.81l-2.38,6.92h-21.28v-.75h.98c.65,0,1.27-.16,1.85-.47.43-.22.73-.54.89-.98.16-.43.23-1.32.23-2.67v-17.94c0-1.75-.18-2.83-.53-3.24-.49-.54-1.3-.81-2.44-.81h-.98v-.75h21.28l.31,6.05h-.79c-.29-1.45-.6-2.45-.95-2.99-.35-.54-.86-.96-1.54-1.24-.54-.2-1.5-.3-2.87-.3h-7.58Z"/>
    <path class="cls-14" d="M165.35,218.01v.75h-11.83v-.75h.98c1.14,0,1.97-.33,2.48-1,.33-.43.49-1.48.49-3.14v-17.84c0-1.4-.09-2.32-.26-2.77-.14-.34-.42-.63-.83-.88-.6-.33-1.22-.49-1.87-.49h-.98v-.75h11.83v.75h-1c-1.13,0-1.95.33-2.46,1-.34.43-.51,1.48-.51,3.14v17.84c0,1.4.09,2.32.27,2.77.13.34.42.63.85.88.58.33,1.2.49,1.85.49h1Z"/>
    <path class="cls-13" d="M205.89,218.76h-7.37l-9.35-12.91c-.69.03-1.26.04-1.69.04-.18,0-.37,0-.57,0-.2,0-.41-.02-.63-.03v8.02c0,1.74.19,2.82.57,3.24.52.6,1.29.9,2.32.9h1.08v.75h-11.83v-.75h1.04c1.17,0,2-.38,2.5-1.14.29-.42.43-1.42.43-2.99v-17.84c0-1.74-.19-2.82-.57-3.24-.53-.6-1.32-.9-2.36-.9h-1.04v-.75h10.06c2.93,0,5.09.21,6.49.64,1.39.43,2.57,1.22,3.54,2.36.97,1.15,1.46,2.52,1.46,4.1,0,1.7-.55,3.17-1.66,4.42-1.11,1.25-2.82,2.13-5.14,2.65l5.7,7.92c1.3,1.82,2.42,3.03,3.36,3.62s2.16.98,3.67,1.14v.75ZM186.28,204.57c.26,0,.48,0,.67,0,.19,0,.35,0,.47,0,2.63,0,4.62-.57,5.96-1.71,1.34-1.14,2.01-2.59,2.01-4.36s-.54-3.13-1.62-4.21-2.51-1.62-4.29-1.62c-.79,0-1.85.13-3.2.39v11.49Z"/>
    <path class="cls-15" d="M232.12,190.52c3.58,0,6.69,1.36,9.32,4.08s3.94,6.12,3.94,10.19-1.32,7.68-3.97,10.45-5.85,4.15-9.61,4.15-7-1.35-9.58-4.05c-2.59-2.7-3.88-6.2-3.88-10.49s1.49-7.96,4.48-10.73c2.59-2.4,5.7-3.6,9.31-3.6ZM231.74,192c-2.47,0-4.45.92-5.95,2.75-1.86,2.28-2.79,5.62-2.79,10.02s.96,7.98,2.89,10.41c1.48,1.85,3.43,2.77,5.86,2.77,2.59,0,4.74-1.01,6.43-3.03,1.69-2.02,2.54-5.21,2.54-9.57,0-4.72-.93-8.25-2.79-10.57-1.49-1.85-3.56-2.77-6.19-2.77Z"/>
    <path class="cls-6" d="M93.59,236.86l.71,8.72h-.71c-.72-2.17-1.65-3.81-2.79-4.91-1.64-1.59-3.75-2.38-6.33-2.38-3.52,0-6.19,1.39-8.02,4.17-1.53,2.35-2.3,5.15-2.3,8.39,0,2.63.51,5.04,1.53,7.21,1.02,2.17,2.35,3.76,4,4.78s3.34,1.52,5.08,1.52c1.02,0,2-.13,2.95-.39s1.87-.64,2.75-1.14v-7.98c0-1.38-.11-2.29-.32-2.72-.21-.43-.54-.75-.98-.98-.44-.22-1.22-.34-2.33-.34v-.77h10.69v.77h-.51c-1.06,0-1.79.35-2.18,1.06-.27.5-.41,1.49-.41,2.97v8.45c-1.56.84-3.1,1.46-4.62,1.85s-3.21.59-5.07.59c-5.33,0-9.39-1.71-12.16-5.13-2.08-2.57-3.12-5.53-3.12-8.88,0-2.43.58-4.76,1.75-6.99,1.38-2.65,3.29-4.68,5.7-6.11,2.02-1.18,4.41-1.77,7.17-1.77,1,0,1.92.08,2.74.24.82.16,1.99.52,3.49,1.08.76.29,1.27.43,1.53.43s.48-.12.66-.36c.18-.24.29-.7.34-1.39h.75Z"/>
    <path class="cls-2" d="M137.64,265.1h-7.37l-9.35-12.91c-.69.03-1.26.04-1.69.04-.18,0-.37,0-.57,0-.2,0-.41-.02-.63-.03v8.02c0,1.74.19,2.82.57,3.24.52.6,1.29.9,2.32.9h1.08v.75h-11.83v-.75h1.04c1.17,0,2-.38,2.5-1.14.29-.42.43-1.42.43-2.99v-17.84c0-1.74-.19-2.82-.57-3.24-.53-.6-1.32-.9-2.36-.9h-1.04v-.75h10.06c2.93,0,5.09.21,6.49.64,1.39.43,2.57,1.22,3.54,2.36.97,1.15,1.46,2.52,1.46,4.1,0,1.7-.55,3.17-1.66,4.42s-2.82,2.13-5.14,2.65l5.7,7.92c1.3,1.82,2.42,3.03,3.36,3.62.94.6,2.16.98,3.67,1.14v.75ZM118.03,250.91c.26,0,.48,0,.67,0,.19,0,.35,0,.47,0,2.63,0,4.62-.57,5.96-1.71,1.34-1.14,2.01-2.59,2.01-4.36s-.54-3.13-1.62-4.21-2.51-1.62-4.29-1.62c-.79,0-1.85.13-3.2.39v11.49Z"/>
    <path class="cls-8" d="M163.87,236.86c3.58,0,6.69,1.36,9.32,4.08s3.94,6.12,3.94,10.19-1.32,7.68-3.97,10.45-5.85,4.15-9.61,4.15-7-1.35-9.58-4.05c-2.59-2.7-3.88-6.2-3.88-10.49s1.49-7.96,4.48-10.73c2.59-2.4,5.7-3.6,9.31-3.6ZM163.48,238.34c-2.47,0-4.45.92-5.95,2.75-1.86,2.28-2.79,5.62-2.79,10.02s.96,7.98,2.89,10.41c1.48,1.85,3.43,2.77,5.87,2.77,2.59,0,4.73-1.01,6.42-3.03s2.54-5.21,2.54-9.57c0-4.72-.93-8.25-2.79-10.57-1.49-1.85-3.56-2.77-6.19-2.77Z"/>
    <path class="cls-9" d="M209.97,238.24v-.75h9.78v.75h-1.04c-1.09,0-1.92.46-2.5,1.36-.29.42-.43,1.4-.43,2.93v11.2c0,2.77-.27,4.92-.82,6.45s-1.63,2.84-3.24,3.93c-1.61,1.09-3.8,1.64-6.57,1.64-3.01,0-5.3-.52-6.86-1.57-1.56-1.05-2.67-2.45-3.32-4.22-.43-1.21-.65-3.48-.65-6.8v-10.79c0-1.7-.23-2.81-.7-3.34-.47-.53-1.23-.79-2.27-.79h-1.04v-.75h11.93v.75h-1.06c-1.14,0-1.96.36-2.44,1.08-.34.49-.51,1.51-.51,3.05v12.04c0,1.07.1,2.3.3,3.69.2,1.38.55,2.46,1.07,3.24.52.77,1.26,1.41,2.23,1.91.97.5,2.16.75,3.57.75,1.81,0,3.42-.39,4.85-1.18,1.43-.79,2.4-1.79,2.92-3.02.52-1.23.78-3.31.78-6.24v-11.18c0-1.72-.19-2.8-.57-3.24-.53-.6-1.32-.9-2.36-.9h-1.04Z"/>
    <path class="cls-5" d="M240.09,252.17v8.04c0,1.74.19,2.82.57,3.24.52.6,1.3.9,2.34.9h1.06v.75h-11.83v-.75h1.04c1.17,0,2-.38,2.5-1.14.27-.42.41-1.42.41-2.99v-17.84c0-1.74-.18-2.82-.55-3.24-.53-.6-1.32-.9-2.36-.9h-1.04v-.75h10.12c2.47,0,4.42.25,5.84.76,1.42.51,2.63,1.37,3.6,2.58.98,1.21,1.47,2.64,1.47,4.3,0,2.25-.74,4.09-2.23,5.5-1.49,1.41-3.59,2.12-6.3,2.12-.67,0-1.38-.05-2.16-.14-.77-.09-1.6-.24-2.48-.43ZM240.09,251.01c.72.14,1.36.24,1.91.31.56.07,1.03.1,1.43.1,1.41,0,2.63-.55,3.66-1.64s1.54-2.51,1.54-4.25c0-1.19-.25-2.3-.73-3.33-.49-1.03-1.18-1.79-2.08-2.3-.9-.51-1.91-.76-3.05-.76-.69,0-1.58.13-2.67.39v11.49Z"/>
  </g>
</svg>