<?xml version="1.0" encoding="UTF-8"?>
<svg id="Layer_1" data-name="Layer 1" xmlns="http://www.w3.org/2000/svg" version="1.1" xmlns:xlink="http://www.w3.org/1999/xlink" viewBox="0 0 320 320">
  <defs>
    <style>
      .cls-1 {
        fill: url(#linear-gradient);
      }

      .cls-1, .cls-2 {
        stroke-width: 0px;
      }

      .cls-3 {
        font-family: TimesNewRomanPSMT, 'Times New Roman';
        font-size: 41.71px;
        letter-spacing: .27em;
      }

      .cls-3, .cls-2 {
        fill: #fff;
      }
    </style>
    <linearGradient id="linear-gradient" x1="159.36" y1="191.51" x2="159.36" y2="42.11" gradientUnits="userSpaceOnUse">
      <stop offset="0" stop-color="#4b1138"/>
      <stop offset=".99" stop-color="#9e277f"/>
    </linearGradient>
  </defs>
  <path class="cls-1" d="M132.18,50.33c12.49-13.45,46.1-8.16,57.39,0,36.5,8.16,43.94,32.65,43.94,32.65,0,0,10.08,6.48,14.89,22.81,4.8,16.33.72,31.45.72,31.45,0,0,2.88,6.24,2.88,13.07-.96,14.27-20.89,12.14-44.9,12.62-24.01.48-21.61.96-28.57,4.8-6.96,3.84-4.8,23.77-4.8,23.77h-28.71s2.16-19.93-4.8-23.77c-6.96-3.84-4.56-4.32-28.57-4.8-24.01-.48-43.94,1.65-44.9-12.62,0-6.83,2.88-13.07,2.88-13.07,0,0-4.08-15.13.72-31.45,4.8-16.33,14.89-22.81,14.89-22.81,0,0,7.44-24.49,43.94-32.65,11.28-8.16,44.9-13.45,57.39,0"/>
  <g>
    <polygon class="cls-2" points="157.08 191.51 159.36 59.35 161.65 191.51 157.08 191.51 157.08 191.51"/>
    <path class="cls-2" d="M157.44,173.91c-9.85-15.21-20.37-30.57-33.57-42.91-14.28-11.28-37.54-18.75-24.49-41.52-11.89,23.16,11.08,28.79,25.94,39.75,14.19,12.23,25.25,27.1,35.95,42.2l-3.84,2.48h0Z"/>
    <path class="cls-2" d="M157.44,151.87c-8.42-14.62-18.8-26.75-33.05-35.69-4.88-4.02-3.75-10.98-1.09-15.56-7.1,13.47,7.1,17.39,15.89,23.54,8.73,7.33,15.48,16.17,22.09,25.23l-3.84,2.48h0Z"/>
    <path class="cls-2" d="M143.13,151.93c-13.7,2.75-27.44-2.46-35.86-13.37-3-2.84-4.92-7.93-9.63-7.63,4.79-.71,7.32,4.38,10.45,6.84,3.09,2.88,6.47,5.72,10.02,7.73,7.27,3.88,16.23,3.96,23.89,2l1.12,4.43h0Z"/>
    <path class="cls-2" d="M92.85,146.75c-4.09-6.37-5.53-17.93,2.03-22.38-4.56,7.01-2.56,14.58-2.03,22.38h0Z"/>
    <path class="cls-2" d="M111.74,91.82c10.49-9.41,20.16-26.76,36.39-20.12-17.8-2.42-22.77,13.44-36.39,20.12h0Z"/>
    <path class="cls-2" d="M157.44,171.43c10.71-15.1,21.77-29.97,35.96-42.2,14.85-10.94,37.84-16.62,25.94-39.75,13.04,22.81-10.21,30.22-24.49,41.51-13.2,12.34-23.72,27.7-33.56,42.91l-3.84-2.48h0Z"/>
    <path class="cls-2" d="M157.44,149.39c9.31-13.93,21.34-26.29,36.12-34.05,4.71-3.3,4.2-9.83,1.86-14.72,8.13,13.42-5.96,18.54-14.44,25.31-7.74,7.45-13.95,16.77-19.7,25.94l-3.84-2.48h0Z"/>
    <path class="cls-2" d="M176.72,147.5c12.14,3.61,25.29-.31,33.92-9.73,3.14-2.46,5.66-7.55,10.45-6.84-4.71-.3-6.63,4.8-9.63,7.63-8.42,10.91-22.16,16.12-35.86,13.37,0,0,1.12-4.43,1.12-4.43h0Z"/>
    <path class="cls-2" d="M225.87,146.75c.53-7.8,2.52-15.38-2.03-22.38,7.57,4.45,6.13,16,2.03,22.38h0Z"/>
    <path class="cls-2" d="M206.98,91.82c-13.62-6.68-18.61-22.54-36.39-20.12,16.25-6.64,25.89,10.7,36.39,20.12h0Z"/>
  </g>
  <text class="cls-3" transform="translate(74.19 218.76)"><tspan x="0" y="0">NEIRO</tspan><tspan x="-6.97" y="46.34">GROUP</tspan></text>
</svg>