<svg width="497" height="497" viewBox="0 0 497 497" fill="none" xmlns="http://www.w3.org/2000/svg">
<g clip-path="url(#clip0_13_81)">
<path d="M470.101 139.936C530.136 262.086 480.488 409.581 358.757 469.617C237.025 529.654 89.5351 479.589 29.5003 357.438C-30.5344 235.496 19.7369 87.5858 141.26 27.5494C262.992 -32.4871 410.067 17.7856 470.101 139.936Z" stroke="url(#paint0_linear_13_81)" stroke-width="1.3888" stroke-miterlimit="10"/>
<path d="M267.561 3.86703C271.092 10.9301 224.145 41.0523 163.071 71.1744C101.998 101.296 49.857 119.993 46.3256 113.138C42.7941 106.074 89.7417 75.9524 150.815 45.8302C211.889 15.7081 264.237 -3.19609 267.561 3.86703Z" stroke="url(#paint1_linear_13_81)" stroke-width="1.3888" stroke-miterlimit="10"/>
<path d="M453.483 383.406C457.014 390.469 410.067 420.591 348.993 450.713C287.92 480.835 235.571 499.739 232.247 492.676C228.716 485.613 275.664 455.491 336.737 425.369C397.81 395.247 450.159 376.342 453.483 383.406Z" stroke="url(#paint2_linear_13_81)" stroke-width="1.3888" stroke-miterlimit="10"/>
<path d="M11.2185 188.339C5.60971 177.121 76.2388 131.003 168.68 85.3006C261.121 39.5981 340.475 11.7611 346.084 22.979C351.692 34.1969 281.063 80.3149 188.622 126.017C96.1812 171.72 16.8273 199.557 11.2185 188.339Z" stroke="url(#paint3_linear_13_81)" stroke-width="1.3888" stroke-miterlimit="10"/>
<path d="M139.391 467.332C133.782 456.114 207.319 408.542 303.499 360.97C399.68 313.605 481.942 284.106 487.551 295.324C493.159 306.542 419.622 354.114 323.442 401.687C227.469 449.259 144.999 478.55 139.391 467.332Z" stroke="url(#paint4_linear_13_81)" stroke-width="1.3888" stroke-miterlimit="10"/>
<path d="M2.4942 264.787C-4.98417 249.414 80.1862 191.663 192.985 135.989C305.784 80.3147 403.211 47.6997 410.897 63.0724C418.375 78.4451 333.205 136.196 220.406 191.87C107.607 247.544 10.1803 280.159 2.4942 264.787Z" stroke="url(#paint5_linear_13_81)" stroke-width="1.3888" stroke-miterlimit="10"/>
<path d="M74.1626 420.591C66.892 405.634 154.347 347.467 269.639 290.547C384.931 233.626 484.227 199.557 491.705 214.514C498.976 229.471 411.521 287.638 296.229 344.559C180.73 401.479 81.4333 435.548 74.1626 420.591Z" stroke="url(#paint6_linear_13_81)" stroke-width="1.3888" stroke-miterlimit="10"/>
<path d="M261.48 275.781C382.655 215.935 472.526 150.492 462.214 129.61C451.901 108.728 345.309 140.314 224.135 200.16C102.96 260.006 13.0886 325.449 23.4013 346.331C33.714 367.213 140.306 335.627 261.48 275.781Z" stroke="url(#paint7_linear_13_81)" stroke-width="1.3888" stroke-miterlimit="10"/>
<path d="M358.756 469.617C358.756 469.617 168.057 532.562 61.4901 350.998C-46.3232 167.357 141.259 27.5491 141.259 27.5491" stroke="url(#paint8_linear_13_81)" stroke-width="1.3888" stroke-miterlimit="10"/>
<path d="M138.35 312.982C239.308 497.246 358.547 469.617 358.547 469.617C358.547 469.617 239.516 497.246 138.35 312.982ZM138.35 312.982C36.1458 126.641 141.259 27.5493 141.259 27.5493" stroke="url(#paint9_linear_13_81)" stroke-width="1.3888" stroke-miterlimit="10"/>
<path d="M215.42 274.966C310.769 461.931 358.755 469.617 358.755 469.617C358.755 469.617 310.769 462.139 215.42 274.966ZM215.42 274.966C118.824 85.9239 141.259 27.5493 141.259 27.5493" stroke="url(#paint10_linear_13_81)" stroke-width="1.3888" stroke-miterlimit="10"/>
<path d="M292.281 236.95C382.022 426.823 358.756 469.617 358.756 469.617C358.756 469.617 382.23 426.823 292.281 236.95ZM292.281 236.95C201.502 44.9994 141.26 27.5493 141.26 27.5493" stroke="url(#paint11_linear_13_81)" stroke-width="1.3888" stroke-miterlimit="10"/>
<path d="M369.35 198.934C453.69 391.507 358.756 469.617 358.756 469.617C358.756 469.617 453.482 391.507 369.35 198.934ZM369.35 198.934C283.972 4.28247 141.26 27.5492 141.26 27.5492" stroke="url(#paint12_linear_13_81)" stroke-width="1.3888" stroke-miterlimit="10"/>
<path d="M358.756 469.825C358.756 469.825 524.942 356.399 446.211 161.125C366.65 -36.6421 141.26 27.5491 141.26 27.5491" stroke="url(#paint13_linear_13_81)" stroke-width="1.3888" stroke-miterlimit="10"/>
</g>
<defs>
<linearGradient id="paint0_linear_13_81" x1="68.9242" y1="-54.4353" x2="421.008" y2="64.2453" gradientUnits="userSpaceOnUse">
<stop stop-color="#C478BF"/>
<stop offset="0.54" stop-color="#984994"/>
</linearGradient>
<linearGradient id="paint1_linear_13_81" x1="75.3508" y1="-10.506" x2="197.628" y2="71.153" gradientUnits="userSpaceOnUse">
<stop stop-color="#C478BF"/>
<stop offset="0.54" stop-color="#984994"/>
</linearGradient>
<linearGradient id="paint2_linear_13_81" x1="261.273" y1="369.025" x2="383.593" y2="450.666" gradientUnits="userSpaceOnUse">
<stop stop-color="#C478BF"/>
<stop offset="0.54" stop-color="#984994"/>
</linearGradient>
<linearGradient id="paint3_linear_13_81" x1="55.1299" y1="0.917839" x2="240.591" y2="124.394" gradientUnits="userSpaceOnUse">
<stop stop-color="#C478BF"/>
<stop offset="0.54" stop-color="#984994"/>
</linearGradient>
<linearGradient id="paint4_linear_13_81" x1="185.063" y1="272.623" x2="377.671" y2="401.064" gradientUnits="userSpaceOnUse">
<stop stop-color="#C478BF"/>
<stop offset="0.54" stop-color="#984994"/>
</linearGradient>
<linearGradient id="paint5_linear_13_81" x1="55.9925" y1="35.2098" x2="283.271" y2="185.434" gradientUnits="userSpaceOnUse">
<stop stop-color="#C478BF"/>
<stop offset="0.54" stop-color="#984994"/>
</linearGradient>
<linearGradient id="paint6_linear_13_81" x1="128.891" y1="186.496" x2="360.65" y2="340.286" gradientUnits="userSpaceOnUse">
<stop stop-color="#C478BF"/>
<stop offset="0.54" stop-color="#984994"/>
</linearGradient>
<linearGradient id="paint7_linear_13_81" x1="58.2794" y1="271.261" x2="200.473" y2="377.259" gradientUnits="userSpaceOnUse">
<stop stop-color="#C478BF"/>
<stop offset="0.54" stop-color="#984994"/>
</linearGradient>
<linearGradient id="paint8_linear_13_81" x1="71.6657" y1="-24.4763" x2="320.333" y2="36.9318" gradientUnits="userSpaceOnUse">
<stop stop-color="#C478BF"/>
<stop offset="0.54" stop-color="#984994"/>
</linearGradient>
<linearGradient id="paint9_linear_13_81" x1="128.584" y1="-23.4321" x2="331.643" y2="17.5575" gradientUnits="userSpaceOnUse">
<stop stop-color="#C478BF"/>
<stop offset="0.54" stop-color="#984994"/>
</linearGradient>
<linearGradient id="paint10_linear_13_81" x1="167.969" y1="-23.263" x2="338.485" y2="5.38829" gradientUnits="userSpaceOnUse">
<stop stop-color="#C478BF"/>
<stop offset="0.54" stop-color="#984994"/>
</linearGradient>
<linearGradient id="paint11_linear_13_81" x1="170.294" y1="-23.263" x2="341.178" y2="5.51616" gradientUnits="userSpaceOnUse">
<stop stop-color="#C478BF"/>
<stop offset="0.54" stop-color="#984994"/>
</linearGradient>
<linearGradient id="paint12_linear_13_81" x1="175.93" y1="-24.2288" x2="377.647" y2="16.2582" gradientUnits="userSpaceOnUse">
<stop stop-color="#C478BF"/>
<stop offset="0.54" stop-color="#984994"/>
</linearGradient>
<linearGradient id="paint13_linear_13_81" x1="184.249" y1="-34.3764" x2="429.853" y2="25.4926" gradientUnits="userSpaceOnUse">
<stop stop-color="#C478BF"/>
<stop offset="0.54" stop-color="#984994"/>
</linearGradient>
<clipPath id="clip0_13_81">
<rect width="496.273" height="495.665" fill="white" transform="translate(0.625 0.750977)"/>
</clipPath>
</defs>
</svg>
