<svg width="198" height="62" viewBox="0 0 198 62" fill="none" xmlns="http://www.w3.org/2000/svg">
<rect x="25.929" y="30.9668" width="39.7933" height="39.7933" transform="rotate(-45 25.929 30.9668)" stroke="#954899" stroke-width="4"/>
<rect x="29" y="39" width="57" height="15" fill="#17121B"/>
<path d="M50.432 33L49.6 30.28H45.44L44.608 33H42L46.032 21.528H48.992L53.04 33H50.432ZM48.192 25.592C48.1387 25.4107 48.0693 25.1813 47.984 24.904C47.8987 24.6267 47.8133 24.344 47.728 24.056C47.6427 23.768 47.5733 23.5173 47.52 23.304C47.4667 23.5173 47.392 23.784 47.296 24.104C47.2107 24.4133 47.1253 24.712 47.04 25C46.9653 25.2773 46.9067 25.4747 46.864 25.592L46.048 28.248H49.024L48.192 25.592ZM54.4869 21.576H56.6629V27.096C56.6629 27.3627 56.6575 27.6613 56.6469 27.992C56.6362 28.3227 56.6255 28.648 56.6149 28.968C56.6042 29.2773 56.5935 29.5493 56.5829 29.784C56.5722 30.008 56.5615 30.1627 56.5509 30.248H56.5989L61.8789 21.576H64.7749V33H62.6149V27.512C62.6149 27.224 62.6202 26.9093 62.6309 26.568C62.6415 26.216 62.6522 25.88 62.6629 25.56C62.6842 25.24 62.7002 24.9627 62.7109 24.728C62.7322 24.4827 62.7482 24.3227 62.7589 24.248H62.6949L57.3989 33H54.4869V21.576Z" fill="white"/>
<path d="M10.752 52H8L3.856 46.208V52H1.44V40.576H3.856V46.112L7.952 40.576H10.528L6.368 46.064L10.752 52ZM22.2455 46.272C22.2455 47.1573 22.1335 47.9627 21.9095 48.688C21.6962 49.4027 21.3655 50.0213 20.9175 50.544C20.4802 51.0667 19.9148 51.4667 19.2215 51.744C18.5388 52.0213 17.7335 52.16 16.8055 52.16C15.8775 52.16 15.0668 52.0213 14.3735 51.744C13.6908 51.456 13.1255 51.056 12.6775 50.544C12.2402 50.0213 11.9095 49.3973 11.6855 48.672C11.4722 47.9467 11.3655 47.1413 11.3655 46.256C11.3655 45.072 11.5575 44.0427 11.9415 43.168C12.3362 42.2933 12.9335 41.616 13.7335 41.136C14.5442 40.6453 15.5735 40.4 16.8215 40.4C18.0588 40.4 19.0775 40.6453 19.8775 41.136C20.6775 41.616 21.2695 42.2987 21.6535 43.184C22.0482 44.0587 22.2455 45.088 22.2455 46.272ZM13.9095 46.272C13.9095 47.072 14.0108 47.76 14.2135 48.336C14.4162 48.912 14.7308 49.3547 15.1575 49.664C15.5842 49.9733 16.1335 50.128 16.8055 50.128C17.4988 50.128 18.0535 49.9733 18.4695 49.664C18.8962 49.3547 19.2055 48.912 19.3975 48.336C19.6002 47.76 19.7015 47.072 19.7015 46.272C19.7015 45.0667 19.4775 44.1227 19.0295 43.44C18.5815 42.7573 17.8455 42.416 16.8215 42.416C16.1388 42.416 15.5842 42.5707 15.1575 42.88C14.7308 43.1893 14.4162 43.632 14.2135 44.208C14.0108 44.784 13.9095 45.472 13.9095 46.272ZM33.9719 52H31.5559V47.072H27.0279V52H24.6119V40.576H27.0279V45.056H31.5559V40.576H33.9719V52ZM41.6943 42.432C41.2356 42.432 40.8249 42.5227 40.4623 42.704C40.1103 42.8853 39.8116 43.1467 39.5663 43.488C39.3209 43.8187 39.1343 44.224 39.0063 44.704C38.8889 45.184 38.8303 45.7227 38.8303 46.32C38.8303 47.1307 38.9263 47.824 39.1183 48.4C39.3209 48.9653 39.6356 49.3973 40.0623 49.696C40.4889 49.9947 41.0329 50.144 41.6943 50.144C42.1636 50.144 42.6276 50.0907 43.0863 49.984C43.5556 49.8773 44.0623 49.728 44.6063 49.536V51.568C44.1049 51.7707 43.6089 51.92 43.1183 52.016C42.6276 52.112 42.0783 52.16 41.4703 52.16C40.2969 52.16 39.3263 51.92 38.5583 51.44C37.8009 50.9493 37.2409 50.2667 36.8783 49.392C36.5156 48.5067 36.3343 47.4773 36.3343 46.304C36.3343 45.44 36.4516 44.6507 36.6863 43.936C36.9209 43.2107 37.2623 42.5867 37.7103 42.064C38.1689 41.5413 38.7289 41.136 39.3903 40.848C40.0623 40.56 40.8303 40.416 41.6943 40.416C42.2596 40.416 42.8249 40.4907 43.3903 40.64C43.9663 40.7787 44.5156 40.9707 45.0383 41.216L44.2543 43.184C43.8276 42.9813 43.3956 42.8053 42.9583 42.656C42.5316 42.5067 42.1103 42.432 41.6943 42.432ZM54.0258 52L53.1938 49.28H49.0338L48.2018 52H45.5938L49.6258 40.528H52.5858L56.6338 52H54.0258ZM51.7858 44.592C51.7324 44.4107 51.6631 44.1813 51.5778 43.904C51.4924 43.6267 51.4071 43.344 51.3218 43.056C51.2364 42.768 51.1671 42.5173 51.1138 42.304C51.0604 42.5173 50.9858 42.784 50.8898 43.104C50.8044 43.4133 50.7191 43.712 50.6338 44C50.5591 44.2773 50.5004 44.4747 50.4578 44.592L49.6418 47.248H52.6178L51.7858 44.592ZM67.1206 52H64.7046V42.592H61.9046C61.8406 43.0827 61.7713 43.616 61.6966 44.192C61.6326 44.768 61.558 45.3547 61.4726 45.952C61.398 46.5387 61.318 47.0987 61.2326 47.632C61.1473 48.1547 61.062 48.6187 60.9766 49.024C60.838 49.6853 60.6513 50.2507 60.4166 50.72C60.1926 51.1893 59.878 51.5467 59.4726 51.792C59.078 52.0373 58.5606 52.16 57.9206 52.16C57.7073 52.16 57.5046 52.144 57.3126 52.112C57.1206 52.08 56.9393 52.0373 56.7686 51.984V50C56.9073 50.0427 57.0406 50.08 57.1686 50.112C57.3073 50.144 57.4566 50.16 57.6166 50.16C57.83 50.16 58.006 50.0907 58.1446 49.952C58.2833 49.8133 58.406 49.5787 58.5126 49.248C58.6193 48.9067 58.726 48.4373 58.8326 47.84C58.886 47.584 58.95 47.2213 59.0246 46.752C59.0993 46.272 59.1846 45.712 59.2806 45.072C59.3873 44.4213 59.494 43.7173 59.6006 42.96C59.7073 42.192 59.8086 41.3973 59.9046 40.576H67.1206V52ZM74.4025 52H71.9865V42.592H68.8825V40.576H77.5065V42.592H74.4025V52ZM79.2681 40.576H81.4441V46.096C81.4441 46.3627 81.4388 46.6613 81.4281 46.992C81.4175 47.3227 81.4068 47.648 81.3961 47.968C81.3855 48.2773 81.3748 48.5493 81.3641 48.784C81.3535 49.008 81.3428 49.1627 81.3321 49.248H81.3801L86.6601 40.576H89.5561V52H87.3961V46.512C87.3961 46.224 87.4015 45.9093 87.4121 45.568C87.4228 45.216 87.4335 44.88 87.4441 44.56C87.4655 44.24 87.4815 43.9627 87.4921 43.728C87.5135 43.4827 87.5295 43.3227 87.5401 43.248H87.4761L82.1801 52H79.2681V40.576ZM101.8 52H99.384V47.072H94.856V52H92.44V40.576H94.856V45.056H99.384V40.576H101.8V52ZM111.89 40.576V42.576H107.09V52H104.674V40.576H111.89ZM124.922 40.576V42.576H120.122V52H117.706V40.576H124.922ZM130.322 40.576C131.794 40.576 132.866 40.896 133.538 41.536C134.221 42.1653 134.562 43.0347 134.562 44.144C134.562 44.6453 134.488 45.1253 134.338 45.584C134.189 46.032 133.938 46.4373 133.586 46.8C133.245 47.152 132.792 47.4293 132.226 47.632C131.661 47.8347 130.962 47.936 130.13 47.936H129.09V52H126.674V40.576H130.322ZM130.194 42.56H129.09V45.952H129.89C130.349 45.952 130.744 45.8933 131.074 45.776C131.405 45.6587 131.661 45.472 131.842 45.216C132.024 44.96 132.114 44.6293 132.114 44.224C132.114 43.6587 131.96 43.2427 131.65 42.976C131.341 42.6987 130.856 42.56 130.194 42.56ZM142.353 48.656C142.033 49.3813 141.692 50.0107 141.329 50.544C140.977 51.0667 140.524 51.4667 139.969 51.744C139.415 52.0213 138.689 52.16 137.793 52.16C137.516 52.16 137.212 52.1387 136.881 52.096C136.551 52.0533 136.247 51.9947 135.969 51.92V49.84C136.225 49.9467 136.508 50.0213 136.817 50.064C137.127 50.1067 137.415 50.128 137.681 50.128C138.033 50.128 138.316 50.0693 138.529 49.952C138.753 49.8347 138.929 49.6747 139.057 49.472C139.196 49.2587 139.308 49.0293 139.393 48.784L135.441 40.576H138.001L140.129 45.52C140.183 45.6267 140.247 45.7653 140.321 45.936C140.396 46.1067 140.471 46.2827 140.545 46.464C140.62 46.6453 140.679 46.8053 140.721 46.944H140.801C140.844 46.816 140.897 46.6613 140.961 46.48C141.036 46.288 141.111 46.096 141.185 45.904C141.271 45.7013 141.345 45.5253 141.409 45.376L143.393 40.576H145.889L142.353 48.656ZM147.331 52V40.576H156.371V52H153.955V42.592H149.747V52H147.331Z" fill="white"/>
</svg>
