<svg width="154" height="26" viewBox="0 0 154 26" fill="none" xmlns="http://www.w3.org/2000/svg">
<path d="M3.432 8.46862C4.552 8.46862 5.368 8.68862 5.88 9.12862C6.392 9.56862 6.648 10.1886 6.648 10.9886C6.648 11.3406 6.588 11.6806 6.468 12.0086C6.356 12.3286 6.168 12.6166 5.904 12.8726C5.64 13.1286 5.288 13.3326 4.848 13.4846C4.408 13.6286 3.868 13.7006 3.228 13.7006H2.244V17.0366H1.164V8.46862H3.432ZM3.336 9.39262H2.244V12.7766H3.108C3.652 12.7766 4.104 12.7206 4.464 12.6086C4.824 12.4886 5.092 12.3006 5.268 12.0446C5.444 11.7886 5.532 11.4526 5.532 11.0366C5.532 10.4846 5.356 10.0726 5.004 9.80062C4.652 9.52862 4.096 9.39262 3.336 9.39262ZM10.7216 10.4966C11.5056 10.4966 12.0856 10.6686 12.4616 11.0126C12.8376 11.3566 13.0256 11.9046 13.0256 12.6566V17.0366H12.2576L12.0536 16.1246H12.0056C11.8216 16.3566 11.6296 16.5526 11.4296 16.7126C11.2376 16.8646 11.0136 16.9766 10.7576 17.0486C10.5096 17.1206 10.2056 17.1566 9.84563 17.1566C9.46163 17.1566 9.11363 17.0886 8.80163 16.9526C8.49763 16.8166 8.25763 16.6086 8.08163 16.3286C7.90563 16.0406 7.81763 15.6806 7.81763 15.2486C7.81763 14.6086 8.06963 14.1166 8.57363 13.7726C9.07763 13.4206 9.85363 13.2286 10.9016 13.1966L11.9936 13.1606V12.7766C11.9936 12.2406 11.8776 11.8686 11.6456 11.6606C11.4136 11.4526 11.0856 11.3486 10.6616 11.3486C10.3256 11.3486 10.0056 11.4006 9.70163 11.5046C9.39763 11.6006 9.11363 11.7126 8.84962 11.8406L8.52563 11.0486C8.80563 10.8966 9.13763 10.7686 9.52163 10.6646C9.90563 10.5526 10.3056 10.4966 10.7216 10.4966ZM11.0336 13.9286C10.2336 13.9606 9.67763 14.0886 9.36563 14.3126C9.06163 14.5366 8.90963 14.8526 8.90963 15.2606C8.90963 15.6206 9.01763 15.8846 9.23363 16.0526C9.45763 16.2206 9.74163 16.3046 10.0856 16.3046C10.6296 16.3046 11.0816 16.1566 11.4416 15.8606C11.8016 15.5566 11.9816 15.0926 11.9816 14.4686V13.8926L11.0336 13.9286ZM16.7042 10.4846C17.1922 10.4846 17.6162 10.5526 17.9762 10.6886C18.3362 10.8166 18.6162 11.0086 18.8162 11.2646C19.0162 11.5126 19.1162 11.8166 19.1162 12.1766C19.1162 12.5686 19.0082 12.8806 18.7922 13.1126C18.5762 13.3366 18.2802 13.5006 17.9042 13.6046V13.6526C18.1602 13.7246 18.3962 13.8246 18.6122 13.9526C18.8282 14.0806 19.0002 14.2486 19.1282 14.4566C19.2642 14.6646 19.3322 14.9326 19.3322 15.2606C19.3322 15.6126 19.2322 15.9326 19.0322 16.2206C18.8402 16.5086 18.5402 16.7366 18.1322 16.9046C17.7322 17.0726 17.2162 17.1566 16.5842 17.1566C16.2802 17.1566 15.9882 17.1406 15.7082 17.1086C15.4362 17.0766 15.1882 17.0286 14.9642 16.9646C14.7482 16.9006 14.5562 16.8246 14.3882 16.7366V15.7886C14.6602 15.9166 14.9802 16.0326 15.3482 16.1366C15.7242 16.2406 16.1322 16.2926 16.5722 16.2926C16.8922 16.2926 17.1802 16.2566 17.4362 16.1846C17.7002 16.1126 17.9082 16.0006 18.0602 15.8486C18.2122 15.6886 18.2882 15.4726 18.2882 15.2006C18.2882 14.9526 18.2202 14.7526 18.0842 14.6006C17.9482 14.4406 17.7442 14.3206 17.4722 14.2406C17.2082 14.1606 16.8682 14.1206 16.4522 14.1206H15.5882V13.2566H16.2842C16.8362 13.2566 17.2762 13.1846 17.6042 13.0406C17.9402 12.8886 18.1082 12.6326 18.1082 12.2726C18.1082 11.9686 17.9802 11.7406 17.7242 11.5886C17.4762 11.4366 17.1162 11.3606 16.6442 11.3606C16.2922 11.3606 15.9802 11.3966 15.7082 11.4686C15.4442 11.5326 15.1522 11.6326 14.8322 11.7686L14.4602 10.9286C14.8042 10.7766 15.1642 10.6646 15.5402 10.5926C15.9162 10.5206 16.3042 10.4846 16.7042 10.4846ZM23.955 10.4846C24.747 10.4846 25.383 10.7606 25.863 11.3126C26.351 11.8646 26.595 12.6966 26.595 13.8086C26.595 14.5366 26.483 15.1526 26.259 15.6566C26.043 16.1526 25.735 16.5286 25.335 16.7846C24.943 17.0326 24.479 17.1566 23.943 17.1566C23.615 17.1566 23.323 17.1126 23.067 17.0246C22.811 16.9366 22.591 16.8246 22.407 16.6886C22.231 16.5446 22.079 16.3886 21.951 16.2206H21.879C21.895 16.3566 21.911 16.5286 21.927 16.7366C21.943 16.9446 21.951 17.1246 21.951 17.2766V19.9166H20.895V10.6046H21.759L21.903 11.4806H21.951C22.079 11.2966 22.231 11.1286 22.407 10.9766C22.591 10.8246 22.807 10.7046 23.055 10.6166C23.311 10.5286 23.611 10.4846 23.955 10.4846ZM23.763 11.3726C23.331 11.3726 22.983 11.4566 22.719 11.6246C22.455 11.7846 22.263 12.0286 22.143 12.3566C22.023 12.6846 21.959 13.1006 21.951 13.6046V13.8086C21.951 14.3366 22.007 14.7846 22.119 15.1526C22.231 15.5206 22.419 15.8006 22.683 15.9926C22.955 16.1846 23.323 16.2806 23.787 16.2806C24.179 16.2806 24.499 16.1726 24.747 15.9566C25.003 15.7406 25.191 15.4486 25.311 15.0806C25.439 14.7046 25.503 14.2766 25.503 13.7966C25.503 13.0606 25.359 12.4726 25.071 12.0326C24.791 11.5926 24.355 11.3726 23.763 11.3726ZM30.7138 10.4966C31.4978 10.4966 32.0778 10.6686 32.4538 11.0126C32.8298 11.3566 33.0178 11.9046 33.0178 12.6566V17.0366H32.2498L32.0458 16.1246H31.9978C31.8138 16.3566 31.6218 16.5526 31.4218 16.7126C31.2298 16.8646 31.0058 16.9766 30.7498 17.0486C30.5018 17.1206 30.1978 17.1566 29.8378 17.1566C29.4538 17.1566 29.1058 17.0886 28.7938 16.9526C28.4898 16.8166 28.2498 16.6086 28.0738 16.3286C27.8978 16.0406 27.8098 15.6806 27.8098 15.2486C27.8098 14.6086 28.0618 14.1166 28.5658 13.7726C29.0698 13.4206 29.8458 13.2286 30.8938 13.1966L31.9858 13.1606V12.7766C31.9858 12.2406 31.8698 11.8686 31.6378 11.6606C31.4058 11.4526 31.0778 11.3486 30.6538 11.3486C30.3178 11.3486 29.9978 11.4006 29.6938 11.5046C29.3898 11.6006 29.1058 11.7126 28.8418 11.8406L28.5178 11.0486C28.7978 10.8966 29.1298 10.7686 29.5138 10.6646C29.8978 10.5526 30.2978 10.4966 30.7138 10.4966ZM31.0258 13.9286C30.2258 13.9606 29.6698 14.0886 29.3578 14.3126C29.0538 14.5366 28.9018 14.8526 28.9018 15.2606C28.9018 15.6206 29.0098 15.8846 29.2258 16.0526C29.4498 16.2206 29.7338 16.3046 30.0778 16.3046C30.6218 16.3046 31.0738 16.1566 31.4338 15.8606C31.7938 15.5566 31.9738 15.0926 31.9738 14.4686V13.8926L31.0258 13.9286ZM34.6684 13.1726C34.6684 12.2366 34.7604 11.4406 34.9444 10.7846C35.1364 10.1206 35.4284 9.59262 35.8204 9.20062C36.2204 8.80062 36.7324 8.53262 37.3564 8.39662C37.8764 8.28462 38.3844 8.18462 38.8804 8.09662C39.3764 8.00862 39.8404 7.92862 40.2724 7.85662L40.4524 8.78062C40.2444 8.81262 40.0124 8.85262 39.7564 8.90062C39.5004 8.94062 39.2404 8.98462 38.9764 9.03262C38.7124 9.07262 38.4564 9.11662 38.2084 9.16462C37.9684 9.20462 37.7564 9.24462 37.5724 9.28462C37.3084 9.34062 37.0724 9.43662 36.8644 9.57262C36.6564 9.70062 36.4764 9.87662 36.3244 10.1006C36.1804 10.3246 36.0644 10.6006 35.9764 10.9286C35.8884 11.2566 35.8364 11.6446 35.8204 12.0926H35.8924C36.0044 11.9406 36.1564 11.7846 36.3484 11.6246C36.5484 11.4646 36.7844 11.3286 37.0564 11.2166C37.3364 11.1046 37.6524 11.0486 38.0044 11.0486C38.5644 11.0486 39.0284 11.1726 39.3964 11.4206C39.7724 11.6606 40.0524 11.9966 40.2364 12.4286C40.4284 12.8606 40.5244 13.3646 40.5244 13.9406C40.5244 14.6526 40.4004 15.2486 40.1524 15.7286C39.9044 16.2086 39.5604 16.5686 39.1204 16.8086C38.6804 17.0406 38.1684 17.1566 37.5844 17.1566C37.1444 17.1566 36.7444 17.0726 36.3844 16.9046C36.0244 16.7286 35.7164 16.4726 35.4604 16.1366C35.2044 15.8006 35.0084 15.3846 34.8724 14.8886C34.7364 14.3926 34.6684 13.8206 34.6684 13.1726ZM37.6684 16.2806C38.0204 16.2806 38.3244 16.2086 38.5804 16.0646C38.8444 15.9206 39.0484 15.6846 39.1924 15.3566C39.3364 15.0286 39.4084 14.5926 39.4084 14.0486C39.4084 13.3926 39.2844 12.8766 39.0364 12.5006C38.7964 12.1166 38.3964 11.9246 37.8364 11.9246C37.4844 11.9246 37.1644 12.0046 36.8764 12.1646C36.5884 12.3166 36.3484 12.4926 36.1564 12.6926C35.9644 12.8926 35.8284 13.0606 35.7484 13.1966C35.7484 13.5886 35.7764 13.9686 35.8324 14.3366C35.8884 14.7046 35.9844 15.0366 36.1204 15.3326C36.2644 15.6206 36.4604 15.8526 36.7084 16.0286C36.9644 16.1966 37.2844 16.2806 37.6684 16.2806ZM47.78 13.8086C47.78 14.3446 47.708 14.8206 47.564 15.2366C47.428 15.6446 47.228 15.9926 46.964 16.2806C46.708 16.5686 46.392 16.7886 46.016 16.9406C45.648 17.0846 45.236 17.1566 44.78 17.1566C44.356 17.1566 43.964 17.0846 43.604 16.9406C43.244 16.7886 42.932 16.5686 42.668 16.2806C42.404 15.9926 42.196 15.6446 42.044 15.2366C41.9 14.8206 41.828 14.3446 41.828 13.8086C41.828 13.0966 41.948 12.4966 42.188 12.0086C42.428 11.5126 42.772 11.1366 43.22 10.8806C43.668 10.6166 44.2 10.4846 44.816 10.4846C45.4 10.4846 45.912 10.6166 46.352 10.8806C46.8 11.1366 47.148 11.5126 47.396 12.0086C47.652 12.4966 47.78 13.0966 47.78 13.8086ZM42.92 13.8086C42.92 14.3126 42.984 14.7526 43.112 15.1286C43.248 15.4966 43.456 15.7806 43.736 15.9806C44.016 16.1806 44.372 16.2806 44.804 16.2806C45.236 16.2806 45.592 16.1806 45.872 15.9806C46.152 15.7806 46.356 15.4966 46.484 15.1286C46.62 14.7526 46.688 14.3126 46.688 13.8086C46.688 13.2966 46.62 12.8606 46.484 12.5006C46.348 12.1406 46.14 11.8646 45.86 11.6726C45.588 11.4726 45.232 11.3726 44.792 11.3726C44.136 11.3726 43.66 11.5886 43.364 12.0206C43.068 12.4526 42.92 13.0486 42.92 13.8086ZM53.7764 11.4926H51.6764V17.0366H50.6324V11.4926H48.5564V10.6046H53.7764V11.4926ZM57.4794 10.4966C58.2634 10.4966 58.8434 10.6686 59.2194 11.0126C59.5954 11.3566 59.7834 11.9046 59.7834 12.6566V17.0366H59.0154L58.8114 16.1246H58.7634C58.5794 16.3566 58.3874 16.5526 58.1874 16.7126C57.9954 16.8646 57.7714 16.9766 57.5154 17.0486C57.2674 17.1206 56.9634 17.1566 56.6034 17.1566C56.2194 17.1566 55.8714 17.0886 55.5594 16.9526C55.2554 16.8166 55.0154 16.6086 54.8394 16.3286C54.6634 16.0406 54.5754 15.6806 54.5754 15.2486C54.5754 14.6086 54.8274 14.1166 55.3314 13.7726C55.8354 13.4206 56.6114 13.2286 57.6594 13.1966L58.7514 13.1606V12.7766C58.7514 12.2406 58.6354 11.8686 58.4034 11.6606C58.1714 11.4526 57.8434 11.3486 57.4194 11.3486C57.0834 11.3486 56.7634 11.4006 56.4594 11.5046C56.1554 11.6006 55.8714 11.7126 55.6074 11.8406L55.2834 11.0486C55.5634 10.8966 55.8954 10.7686 56.2794 10.6646C56.6634 10.5526 57.0634 10.4966 57.4794 10.4966ZM57.7914 13.9286C56.9914 13.9606 56.4354 14.0886 56.1234 14.3126C55.8194 14.5366 55.6674 14.8526 55.6674 15.2606C55.6674 15.6206 55.7754 15.8846 55.9914 16.0526C56.2154 16.2206 56.4994 16.3046 56.8434 16.3046C57.3874 16.3046 57.8394 16.1566 58.1994 15.8606C58.5594 15.5566 58.7394 15.0926 58.7394 14.4686V13.8926L57.7914 13.9286ZM62.826 10.6046V13.2806H66.318V10.6046H67.374V17.0366H66.318V14.1686H62.826V17.0366H61.77V10.6046H62.826ZM75.0026 13.8086C75.0026 14.3446 74.9306 14.8206 74.7866 15.2366C74.6506 15.6446 74.4506 15.9926 74.1866 16.2806C73.9306 16.5686 73.6146 16.7886 73.2386 16.9406C72.8706 17.0846 72.4586 17.1566 72.0026 17.1566C71.5786 17.1566 71.1866 17.0846 70.8266 16.9406C70.4666 16.7886 70.1546 16.5686 69.8906 16.2806C69.6266 15.9926 69.4186 15.6446 69.2666 15.2366C69.1226 14.8206 69.0506 14.3446 69.0506 13.8086C69.0506 13.0966 69.1706 12.4966 69.4106 12.0086C69.6506 11.5126 69.9946 11.1366 70.4426 10.8806C70.8906 10.6166 71.4226 10.4846 72.0386 10.4846C72.6226 10.4846 73.1346 10.6166 73.5746 10.8806C74.0226 11.1366 74.3706 11.5126 74.6186 12.0086C74.8746 12.4966 75.0026 13.0966 75.0026 13.8086ZM70.1426 13.8086C70.1426 14.3126 70.2066 14.7526 70.3346 15.1286C70.4706 15.4966 70.6786 15.7806 70.9586 15.9806C71.2386 16.1806 71.5946 16.2806 72.0266 16.2806C72.4586 16.2806 72.8146 16.1806 73.0946 15.9806C73.3746 15.7806 73.5786 15.4966 73.7066 15.1286C73.8426 14.7526 73.9106 14.3126 73.9106 13.8086C73.9106 13.2966 73.8426 12.8606 73.7066 12.5006C73.5706 12.1406 73.3626 11.8646 73.0826 11.6726C72.8106 11.4726 72.4546 11.3726 72.0146 11.3726C71.3586 11.3726 70.8826 11.5886 70.5866 12.0206C70.2906 12.4526 70.1426 13.0486 70.1426 13.8086ZM84.5787 12.2246C84.5787 12.6246 84.4587 12.9366 84.2187 13.1606C83.9787 13.3846 83.6707 13.5366 83.2947 13.6166V13.6646C83.6947 13.7206 84.0427 13.8646 84.3387 14.0966C84.6347 14.3206 84.7827 14.6726 84.7827 15.1526C84.7827 15.4246 84.7307 15.6766 84.6267 15.9086C84.5307 16.1406 84.3787 16.3406 84.1707 16.5086C83.9627 16.6766 83.6947 16.8086 83.3667 16.9046C83.0387 16.9926 82.6427 17.0366 82.1787 17.0366H79.4067V10.6046H82.1667C82.6227 10.6046 83.0307 10.6566 83.3907 10.7606C83.7587 10.8566 84.0467 11.0246 84.2547 11.2646C84.4707 11.4966 84.5787 11.8166 84.5787 12.2246ZM83.6907 15.1526C83.6907 14.7846 83.5507 14.5206 83.2707 14.3606C82.9907 14.2006 82.5787 14.1206 82.0347 14.1206H80.4627V16.1846H82.0587C82.5867 16.1846 82.9907 16.1086 83.2707 15.9566C83.5507 15.7966 83.6907 15.5286 83.6907 15.1526ZM83.5107 12.3566C83.5107 12.0526 83.3987 11.8326 83.1747 11.6966C82.9587 11.5526 82.6027 11.4806 82.1067 11.4806H80.4627V13.2446H81.9147C82.4347 13.2446 82.8307 13.1726 83.1027 13.0286C83.3747 12.8846 83.5107 12.6606 83.5107 12.3566Z" fill="#898989"/>
<path d="M107.34 6.01952C109.904 8.56573 109.904 12.6916 107.34 15.2378C106.401 16.1711 105.247 16.7631 104.035 17.0123C104.769 16.159 105.733 14.6035 103.783 13.8832C101.274 12.9574 104.731 12.2763 104.943 12.2189C105.443 12.0815 105.4 12.0951 105.481 12.0694C106.059 11.8852 107.72 11.2207 103.977 10.3372C99.79 9.35103 104.348 8.15948 104.648 8.08246C104.307 8.12928 98.2772 8.98707 101.508 10.0956C104.543 11.1361 103.009 11.2675 102.718 11.2826C102.671 11.2856 102.626 11.2886 102.578 11.2932C101.843 11.3626 97.1126 11.867 98.9416 13.3244C100.242 14.3619 99.0967 15.0098 98.1571 15.333C98.1237 15.3028 98.0917 15.271 98.0583 15.2378C95.4949 12.6916 95.4949 8.56573 98.0583 6.01952C100.622 3.47331 104.777 3.47331 107.34 6.01952Z" fill="url(#paint0_linear_206_29)"/>
<path d="M110.266 3.11405V3.11254C106.088 -1.03751 99.3116 -1.03751 95.1335 3.11254V3.11405C90.9555 7.26409 90.9555 13.9936 95.1335 18.1436L101.691 24.6571C102.247 25.2114 103.152 25.2114 103.709 24.6571L110.266 18.1436C114.444 13.9936 114.444 7.26409 110.266 3.11405ZM102.781 19.9815C97.516 20.0268 93.2391 15.7771 93.2832 10.5473C93.3273 5.46997 97.5054 1.31992 102.618 1.27612C107.884 1.23233 112.16 5.48054 112.116 10.7104C112.072 15.7877 107.894 19.9377 102.781 19.9815Z" fill="url(#paint1_linear_206_29)"/>
<path d="M134.141 3.16992L130.947 21.4057C130.895 21.7047 130.669 21.904 130.38 21.904H127.327C127.038 21.904 126.752 21.7047 126.608 21.4057L120.768 9.27871L118.644 21.4057C118.591 21.7047 118.366 21.904 118.077 21.904H114.545L117.741 3.66678C117.792 3.36927 118.019 3.16992 118.306 3.16992H121.361C121.648 3.16992 121.936 3.36927 122.08 3.66678L127.921 15.7952L130.044 3.66678C130.097 3.36927 130.322 3.16992 130.611 3.16992H134.141Z" fill="white"/>
<path d="M140.934 3.16992L137.74 21.4057C137.686 21.7047 137.46 21.904 137.173 21.904H133.641L136.835 3.66829C136.887 3.36927 137.113 3.16992 137.402 3.16992H140.934Z" fill="white"/>
<path d="M154 18.6224L153.514 21.4057C153.46 21.7047 153.234 21.904 152.947 21.904H140.431V21.9025L143.625 3.66678C143.678 3.36927 143.905 3.16992 144.192 3.16992H147.724L145.018 18.6224H154Z" fill="white"/>
<defs>
<linearGradient id="paint0_linear_206_29" x1="98.0587" y1="15.2382" x2="107.278" y2="5.95715" gradientUnits="userSpaceOnUse">
<stop stop-color="#FD4766"/>
<stop offset="0.5" stop-color="#7644FF"/>
<stop offset="1" stop-color="#1C99FE"/>
</linearGradient>
<linearGradient id="paint1_linear_206_29" x1="95.1335" y1="18.1436" x2="110.164" y2="3.01145" gradientUnits="userSpaceOnUse">
<stop stop-color="#FD4766"/>
<stop offset="0.5" stop-color="#7644FF"/>
<stop offset="1" stop-color="#1C99FE"/>
</linearGradient>
</defs>
</svg>
