<?xml version="1.0" encoding="UTF-8"?>
<svg id="Layer_1" data-name="Layer 1" xmlns="http://www.w3.org/2000/svg" xmlns:xlink="http://www.w3.org/1999/xlink" viewBox="0 0 32 32">
  <defs>
    <style>
      .cls-1 {
        fill: url(#linear-gradient);
      }

      .cls-1, .cls-2 {
        stroke-width: 0px;
      }

      .cls-2 {
        fill: #fff;
      }
    </style>
    <linearGradient id="linear-gradient" x1="16" y1="28.64" x2="16" y2="3.36" gradientUnits="userSpaceOnUse">
      <stop offset="0" stop-color="#4b1138"/>
      <stop offset=".99" stop-color="#9e277f"/>
    </linearGradient>
  </defs>
  <path class="cls-1" d="M11.4,4.75c2.11-2.27,7.8-1.38,9.71,0,6.17,1.38,7.43,5.52,7.43,5.52,0,0,1.71,1.1,2.52,3.86s.12,5.32.12,5.32c0,0,.49,1.06.49,2.21-.16,2.41-3.53,2.05-7.6,2.14-4.06.08-3.66.16-4.83.81-1.18.65-.81,4.02-.81,4.02h-4.86s.37-3.37-.81-4.02c-1.18-.65-.77-.73-4.83-.81-4.06-.08-7.43.28-7.6-2.14,0-1.15.49-2.21.49-2.21,0,0-.69-2.56.12-5.32.81-2.76,2.52-3.86,2.52-3.86,0,0,1.26-4.14,7.43-5.52,1.91-1.38,7.6-2.27,9.71,0"/>
  <g>
    <polygon class="cls-2" points="15.61 28.64 16 6.28 16.39 28.64 15.61 28.64 15.61 28.64"/>
    <path class="cls-2" d="M15.68,25.66c-1.67-2.57-3.45-5.17-5.68-7.26-2.42-1.91-6.35-3.17-4.14-7.02-2.01,3.92,1.87,4.87,4.39,6.72,2.4,2.07,4.27,4.58,6.08,7.14l-.65.42h0Z"/>
    <path class="cls-2" d="M15.68,21.93c-1.42-2.47-3.18-4.53-5.59-6.04-.83-.68-.63-1.86-.18-2.63-1.2,2.28,1.2,2.94,2.69,3.98,1.48,1.24,2.62,2.74,3.74,4.27l-.65.42h0Z"/>
    <path class="cls-2" d="M13.25,21.94c-2.32.47-4.64-.42-6.07-2.26-.51-.48-.83-1.34-1.63-1.29.81-.12,1.24.74,1.77,1.16.52.49,1.1.97,1.7,1.31,1.23.66,2.75.67,4.04.34l.19.75h0Z"/>
    <path class="cls-2" d="M4.75,21.07c-.69-1.08-.94-3.03.34-3.79-.77,1.19-.43,2.47-.34,3.79h0Z"/>
    <path class="cls-2" d="M7.94,11.77c1.77-1.59,3.41-4.53,6.16-3.4-3.01-.41-3.85,2.27-6.16,3.4h0Z"/>
    <path class="cls-2" d="M15.68,25.24c1.81-2.55,3.68-5.07,6.08-7.14,2.51-1.85,6.4-2.81,4.39-6.72,2.21,3.86-1.73,5.11-4.14,7.02-2.23,2.09-4.01,4.69-5.68,7.26l-.65-.42h0Z"/>
    <path class="cls-2" d="M15.68,21.51c1.57-2.36,3.61-4.45,6.11-5.76.8-.56.71-1.66.31-2.49,1.37,2.27-1.01,3.14-2.44,4.28-1.31,1.26-2.36,2.84-3.33,4.39l-.65-.42h0Z"/>
    <path class="cls-2" d="M18.94,21.19c2.05.61,4.28-.05,5.74-1.65.53-.42.96-1.28,1.77-1.16-.8-.05-1.12.81-1.63,1.29-1.42,1.85-3.75,2.73-6.07,2.26,0,0,.19-.75.19-.75h0Z"/>
    <path class="cls-2" d="M27.25,21.07c.09-1.32.43-2.6-.34-3.79,1.28.75,1.04,2.71.34,3.79h0Z"/>
    <path class="cls-2" d="M24.06,11.77c-2.3-1.13-3.15-3.81-6.16-3.4,2.75-1.12,4.38,1.81,6.16,3.4h0Z"/>
  </g>
</svg>