<?xml version="1.0" encoding="UTF-8"?>
<!DOCTYPE svg PUBLIC "-//W3C//DTD SVG 1.1//EN" "http://www.w3.org/Graphics/SVG/1.1/DTD/svg11.dtd">
<svg xmlns="http://www.w3.org/2000/svg" version="1.1" width="1280px" height="509px" style="shape-rendering:geometricPrecision; text-rendering:geometricPrecision; image-rendering:optimizeQuality; fill-rule:evenodd; clip-rule:evenodd" xmlns:xlink="http://www.w3.org/1999/xlink">
<g><path style="opacity:0.229" fill="#b71117" d="M 108.5,-0.5 C 113.5,-0.5 118.5,-0.5 123.5,-0.5C 117.899,0.557813 112.233,1.89115 106.5,3.5C 105.702,3.04311 105.369,2.37644 105.5,1.5C 106.71,1.06795 107.71,0.40128 108.5,-0.5 Z"/></g>
<g><path style="opacity:1" fill="#ee151f" d="M 123.5,-0.5 C 153.833,-0.5 184.167,-0.5 214.5,-0.5C 214.5,-0.166667 214.5,0.166667 214.5,0.5C 213.867,0.879518 213.2,1.21285 212.5,1.5C 213.498,150.46 213.832,299.46 213.5,448.5C 198.588,448.824 183.755,448.491 169,447.5C 168.667,392.833 168.333,338.167 168,283.5C 167.833,337.668 167.333,391.668 166.5,445.5C 166.5,391.833 166.5,338.167 166.5,284.5C 157.494,284.334 148.494,284.5 139.5,285C 112.7,336.1 86.5329,387.6 61,439.5C 59.204,442.927 57.0373,446.094 54.5,449C 45.2626,450.141 35.9292,450.641 26.5,450.5C 17.27,450.472 8.26999,449.805 -0.5,448.5C -0.5,444.167 -0.5,439.833 -0.5,435.5C 3.92615,430.991 7.09282,425.658 9,419.5C 35.6082,371.275 62.4415,323.275 89.5,275.5C 44.4193,253.431 19.586,217.098 15,166.5C 10.2921,123.687 18.9588,84.0201 41,47.5C 57.7571,25.3841 79.2571,10.0508 105.5,1.5C 105.369,2.37644 105.702,3.04311 106.5,3.5C 112.233,1.89115 117.899,0.557813 123.5,-0.5 Z M 129.5,39.5 C 141.833,39.5 154.167,39.5 166.5,39.5C 166.5,107.167 166.5,174.833 166.5,242.5C 118.859,249.296 87.3588,230.296 72,185.5C 63.1965,148.281 65.8631,111.948 80,76.5C 87.8608,63.3059 98.3608,52.8059 111.5,45C 117.519,42.8346 123.519,41.0013 129.5,39.5 Z"/></g>
<g><path style="opacity:0.999" fill="#000000" d="M 787.5,140.5 C 802.658,138.608 816.992,141.108 830.5,148C 843.769,157.275 854.269,169.109 862,183.5C 875.821,216.093 881.988,250.093 880.5,285.5C 879.53,293.778 879.197,302.111 879.5,310.5C 844.165,310.667 808.832,310.5 773.5,310C 768.803,309.72 764.137,309.22 759.5,308.5C 758.558,308.608 757.725,308.941 757,309.5C 754.992,333.785 758.659,357.118 768,379.5C 784.697,407.246 809.197,417.746 841.5,411C 850.423,410.321 859.089,408.488 867.5,405.5C 869.741,406.032 871.241,407.365 872,409.5C 874.96,417.635 876.627,425.969 877,434.5C 876.535,435.931 875.701,437.097 874.5,438C 846.035,455.317 815.368,460.984 782.5,455C 756.385,446.891 736.885,430.724 724,406.5C 709.899,376.337 703.066,344.504 703.5,311C 703.818,271.92 710.651,234.087 724,197.5C 733.381,175.538 748.214,158.372 768.5,146C 774.97,144.216 781.303,142.383 787.5,140.5 Z M 790.5,180.5 C 795.913,180.229 801.246,180.729 806.5,182C 813.474,188.259 818.641,195.759 822,204.5C 827.715,225.457 830.382,246.79 830,268.5C 812.734,270.313 795.234,271.147 777.5,271C 771.603,271.738 765.77,272.571 760,273.5C 758.897,271.371 758.397,269.037 758.5,266.5C 759.102,246.754 762.269,227.421 768,208.5C 771.633,198.719 777.133,190.219 784.5,183C 786.611,182.155 788.611,181.322 790.5,180.5 Z"/></g>
<g><path style="opacity:0.999" fill="#000000" d="M 1279.5,411.5 C 1279.5,419.833 1279.5,428.167 1279.5,436.5C 1251.23,455.808 1220.23,461.642 1186.5,454C 1154.07,441.566 1132.57,418.733 1122,385.5C 1113.84,361.701 1110.34,337.201 1111.5,312C 1110.55,276.645 1116.38,242.478 1129,209.5C 1137.89,186.828 1151.72,167.994 1170.5,153C 1187.59,142.063 1206.26,138.063 1226.5,141C 1240.95,142.93 1254.62,147.263 1267.5,154C 1272.55,156.344 1275.05,160.177 1275,165.5C 1268.14,176.354 1261.3,187.187 1254.5,198C 1251.88,199.805 1249.21,199.805 1246.5,198C 1239.78,191.46 1232.11,186.126 1223.5,182C 1215.83,180 1208.17,180 1200.5,182C 1188.89,190.615 1180.72,201.782 1176,215.5C 1161.7,262.198 1159.37,309.531 1169,357.5C 1173.47,373.947 1181.63,388.114 1193.5,400C 1209.42,411.425 1227.09,415.092 1246.5,411C 1254.83,410.273 1262.99,408.773 1271,406.5C 1272.56,406.603 1274.06,406.937 1275.5,407.5C 1276.41,409.375 1277.74,410.708 1279.5,411.5 Z"/></g>
<g><path style="opacity:0.999" fill="#000000" d="M 390.5,263.5 C 391.333,226.336 391.833,189.002 392,151.5C 392.75,150.874 393.584,150.374 394.5,150C 407.833,149.333 421.167,149.333 434.5,150C 435.191,151.067 435.691,152.234 436,153.5C 436.667,250.5 436.667,347.5 436,444.5C 435.5,445.5 435,446.5 434.5,447.5C 420.339,448.167 406.339,448.833 392.5,449.5C 391.21,448.942 390.377,447.942 390,446.5C 389.972,399.822 389.805,353.155 389.5,306.5C 367.591,306.173 345.758,306.506 324,307.5C 323.667,353.833 323.333,400.167 323,446.5C 322.167,448 321,449.167 319.5,450C 305.301,450.808 291.134,450.641 277,449.5C 276.055,449.095 275.388,448.428 275,447.5C 274.333,349.167 274.333,250.833 275,152.5C 275.11,150.152 276.277,148.652 278.5,148C 292.167,147.333 305.833,147.333 319.5,148C 320.416,148.374 321.25,148.874 322,149.5C 323.482,188.439 323.982,227.439 323.5,266.5C 345.5,266.5 367.5,266.5 389.5,266.5C 389.263,265.209 389.596,264.209 390.5,263.5 Z"/></g>
<g><path style="opacity:0.999" fill="#000000" d="M 679.5,508.5 C 666.167,508.5 652.833,508.5 639.5,508.5C 637.883,504.386 637.049,500.053 637,495.5C 636.611,485.498 636.778,475.498 637.5,465.5C 637.333,461.5 637.167,457.5 637,453.5C 636.626,452.584 636.126,451.75 635.5,451C 616,450.833 596.5,450.667 577,450.5C 556.118,450.356 535.285,450.856 514.5,452C 513.874,452.75 513.374,453.584 513,454.5C 512.193,463.546 512.526,472.546 514,481.5C 519.506,488.055 520.84,495.388 518,503.5C 515.099,504.237 512.932,505.903 511.5,508.5C 497.5,508.5 483.5,508.5 469.5,508.5C 468.348,476.875 468.182,445.209 469,413.5C 469.374,412.584 469.874,411.75 470.5,411C 475.833,410.667 481.167,410.333 486.5,410C 487.874,407.417 489.374,404.917 491,402.5C 503.527,374.25 512.86,344.916 519,314.5C 521.831,293.186 524.498,271.853 527,250.5C 527.907,217.172 528.574,183.838 529,150.5C 529.833,149.667 530.667,148.833 531.5,148C 573.5,147.333 615.5,147.333 657.5,148C 658.126,148.75 658.626,149.584 659,150.5C 659.333,235.167 659.667,319.833 660,404.5C 660.785,406.286 661.951,407.786 663.5,409C 669.189,409.702 674.856,410.535 680.5,411.5C 681.356,414.279 682.023,417.112 682.5,420C 682.535,447.469 682.368,474.969 682,502.5C 681.427,504.641 680.594,506.641 679.5,508.5 Z M 576.5,187.5 C 587.748,187.179 598.915,187.513 610,188.5C 610.5,262.499 610.667,336.499 610.5,410.5C 583.167,410.5 555.833,410.5 528.5,410.5C 541.387,385.364 551.553,359.031 559,331.5C 565.472,304.173 569.805,276.507 572,248.5C 573.201,228.083 574.701,207.749 576.5,187.5 Z"/></g>
<g><path style="opacity:0.999" fill="#000000" d="M 975.5,299.5 C 974.732,298.737 974.232,297.737 974,296.5C 973.5,347.166 973.333,397.832 973.5,448.5C 972.391,449.29 971.058,449.79 969.5,450C 955.788,450.815 942.121,450.648 928.5,449.5C 927.333,349.502 927.167,249.502 928,149.5C 928.5,149 929,148.5 929.5,148C 943.833,147.333 958.167,147.333 972.5,148C 973.333,148.833 974.167,149.667 975,150.5C 975.333,193.833 975.667,237.167 976,280.5C 981.224,272.514 985.89,264.181 990,255.5C 996.333,241.5 1002.67,227.5 1009,213.5C 1018.99,193.535 1028.99,173.535 1039,153.5C 1041.44,151.031 1044.27,149.198 1047.5,148C 1061.83,147.333 1076.17,147.333 1090.5,148C 1091.42,148.374 1092.25,148.874 1093,149.5C 1092.97,153.551 1091.31,156.885 1088,159.5C 1087.56,162.376 1086.56,165.043 1085,167.5C 1064.7,204.092 1044.37,240.759 1024,277.5C 1023.27,279.871 1022.43,282.205 1021.5,284.5C 1047.22,335.608 1073.72,386.275 1101,436.5C 1102.78,439.613 1103.95,442.946 1104.5,446.5C 1104.47,448.029 1103.8,449.196 1102.5,450C 1087.5,450.667 1072.5,450.667 1057.5,450C 1054.11,448.885 1050.94,447.385 1048,445.5C 1029.94,408.377 1011.61,371.377 993,334.5C 992.178,332.212 991.511,329.878 991,327.5C 986.124,317.875 980.957,308.542 975.5,299.5 Z"/></g>
<g><path style="opacity:0.596" fill="#000000" d="M 392.5,449.5 C 406.339,448.833 420.339,448.167 434.5,447.5C 435,446.5 435.5,445.5 436,444.5C 436.667,347.5 436.667,250.5 436,153.5C 435.691,152.234 435.191,151.067 434.5,150C 421.167,149.333 407.833,149.333 394.5,150C 393.584,150.374 392.75,150.874 392,151.5C 391.833,189.002 391.333,226.336 390.5,263.5C 390.644,238.66 390.31,213.827 389.5,189C 389.834,176.16 390.334,163.327 391,150.5C 391.374,149.584 391.874,148.75 392.5,148C 406.5,147.333 420.5,147.333 434.5,148C 436.333,148.5 437.5,149.667 438,151.5C 438.667,249.5 438.667,347.5 438,445.5C 437.89,447.848 436.723,449.348 434.5,450C 420.425,450.814 406.425,450.648 392.5,449.5 Z"/></g>
<g><path style="opacity:0.835" fill="#fc1821" d="M 214.5,0.5 C 215.666,149.999 215.833,299.666 215,449.5C 199.908,450.657 184.741,450.824 169.5,450C 167.624,449.082 166.624,447.582 166.5,445.5C 167.333,391.668 167.833,337.668 168,283.5C 168.333,338.167 168.667,392.833 169,447.5C 183.755,448.491 198.588,448.824 213.5,448.5C 213.832,299.46 213.498,150.46 212.5,1.5C 213.2,1.21285 213.867,0.879518 214.5,0.5 Z"/></g>
<g><path style="opacity:0.12" fill="#252323" d="M 975.5,299.5 C 975.667,348.834 975.5,398.168 975,447.5C 974.617,448.056 974.117,448.389 973.5,448.5C 973.333,397.832 973.5,347.166 974,296.5C 974.232,297.737 974.732,298.737 975.5,299.5 Z"/></g>
</svg>
