<?xml version="1.0" encoding="UTF-8"?>
<!DOCTYPE svg PUBLIC "-//W3C//DTD SVG 1.1//EN" "http://www.w3.org/Graphics/SVG/1.1/DTD/svg11.dtd">
<svg xmlns="http://www.w3.org/2000/svg" version="1.1" width="1500px" height="500px" style="shape-rendering:geometricPrecision; text-rendering:geometricPrecision; image-rendering:optimizeQuality; fill-rule:evenodd; clip-rule:evenodd" xmlns:xlink="http://www.w3.org/1999/xlink">
<g><path style="opacity:1" fill="#a4ce4e" d="M -0.5,-0.5 C 499.5,-0.5 999.5,-0.5 1499.5,-0.5C 1499.5,166.167 1499.5,332.833 1499.5,499.5C 999.5,499.5 499.5,499.5 -0.5,499.5C -0.5,332.833 -0.5,166.167 -0.5,-0.5 Z"/></g>
<g><path style="opacity:1" fill="#343741" d="M 380.5,177.5 C 400.464,176.32 420.131,178.153 439.5,183C 450.006,185.996 458.506,191.829 465,200.5C 467.113,205.284 468.446,210.284 469,215.5C 469.667,236.833 469.667,258.167 469,279.5C 469.052,292.574 463.552,302.408 452.5,309C 439.029,315.933 424.695,319.6 409.5,320C 390.334,321.389 371.667,319.056 353.5,313C 337.961,307.14 329.794,295.973 329,279.5C 328.333,258.833 328.333,238.167 329,217.5C 329.455,203.394 335.955,193.228 348.5,187C 358.826,182.276 369.493,179.109 380.5,177.5 Z"/></g>
<g><path style="opacity:1" fill="#343641" d="M 543.5,177.5 C 561.717,176.626 579.717,178.126 597.5,182C 611.85,185.365 622.35,193.531 629,206.5C 630.979,234.497 630.979,262.497 629,290.5C 623.464,303.704 613.631,311.871 599.5,315C 570.133,323.212 541.133,322.212 512.5,312C 498.792,306.41 491.626,296.243 491,281.5C 490.333,258.167 490.333,234.833 491,211.5C 494.564,197.93 503.064,188.763 516.5,184C 525.497,181.239 534.497,179.073 543.5,177.5 Z"/></g>
<g><path style="opacity:1" fill="#343641" d="M 1079.5,177.5 C 1099.15,176.217 1118.48,178.05 1137.5,183C 1153.41,186.908 1163.24,196.742 1167,212.5C 1167.9,238.191 1167.57,263.858 1166,289.5C 1162.22,301.281 1154.39,309.114 1142.5,313C 1111.35,323.314 1080.35,322.981 1049.5,312C 1040.72,308.224 1034.22,302.058 1030,293.5C 1028.94,288.896 1028.27,284.229 1028,279.5C 1027.33,257.167 1027.33,234.833 1028,212.5C 1028.46,205.754 1030.96,199.921 1035.5,195C 1048.51,184.943 1063.17,179.11 1079.5,177.5 Z"/></g>
<g><path style="opacity:1" fill="#343641" d="M 311.5,317.5 C 267.167,317.5 222.833,317.5 178.5,317.5C 178.5,308.167 178.5,298.833 178.5,289.5C 204.632,262.868 230.965,236.368 257.5,210C 231.169,209.5 204.835,209.333 178.5,209.5C 178.5,199.833 178.5,190.167 178.5,180.5C 222.5,180.5 266.5,180.5 310.5,180.5C 310.666,190.172 310.5,199.839 310,209.5C 283.833,235.667 257.667,261.833 231.5,288C 258.165,288.5 284.831,288.667 311.5,288.5C 311.5,298.167 311.5,307.833 311.5,317.5 Z"/></g>
<g><path style="opacity:1" fill="#343641" d="M 1320.5,180.5 C 1320.5,226.167 1320.5,271.833 1320.5,317.5C 1307.17,317.5 1293.83,317.5 1280.5,317.5C 1263.2,292.678 1246.03,267.678 1229,242.5C 1228.5,267.831 1228.33,293.164 1228.5,318.5C 1215.17,318.5 1201.83,318.5 1188.5,318.5C 1188.5,272.5 1188.5,226.5 1188.5,180.5C 1202.18,180.167 1215.85,180.501 1229.5,181.5C 1246.53,206.03 1263.36,230.696 1280,255.5C 1280.5,230.502 1280.67,205.502 1280.5,180.5C 1293.83,180.5 1307.17,180.5 1320.5,180.5 Z"/></g>
<g><path style="opacity:1" fill="#343641" d="M 772.5,318.5 C 772.667,282.832 772.5,247.165 772,211.5C 771.338,213.813 770.838,216.146 770.5,218.5C 761.857,251.74 753.523,285.073 745.5,318.5C 734.833,318.5 724.167,318.5 713.5,318.5C 705.371,285.447 697.038,252.447 688.5,219.5C 688.005,217.518 687.505,215.518 687,213.5C 686.5,248.498 686.333,283.498 686.5,318.5C 674.833,318.5 663.167,318.5 651.5,318.5C 651.5,272.5 651.5,226.5 651.5,180.5C 672.167,180.5 692.833,180.5 713.5,180.5C 718.68,203.222 724.18,225.889 730,248.5C 735.38,225.921 740.88,203.421 746.5,181C 766.831,180.5 787.164,180.333 807.5,180.5C 807.5,226.5 807.5,272.5 807.5,318.5C 795.833,318.5 784.167,318.5 772.5,318.5 Z"/></g>
<g><path style="opacity:1" fill="#5c6c45" d="M 962.5,179.5 C 977.167,179.5 991.833,179.5 1006.5,179.5C 1006.5,225.833 1006.5,272.167 1006.5,318.5C 991.833,318.5 977.167,318.5 962.5,318.5C 962.5,272.167 962.5,225.833 962.5,179.5 Z"/></g>
<g><path style="opacity:1" fill="#333641" d="M 963.5,180.5 C 977.5,180.5 991.5,180.5 1005.5,180.5C 1005.5,226.167 1005.5,271.833 1005.5,317.5C 991.5,317.5 977.5,317.5 963.5,317.5C 963.5,271.833 963.5,226.167 963.5,180.5 Z"/></g>
<g><path style="opacity:1" fill="#a3cd4e" d="M 391.5,210.5 C 401.788,209.243 411.455,211.076 420.5,216C 423.433,218.264 425.6,221.098 427,224.5C 427.667,240.5 427.667,256.5 427,272.5C 423.532,279.958 417.698,284.458 409.5,286C 379.265,291.264 366.265,278.764 370.5,248.5C 370.401,240.441 370.901,232.441 372,224.5C 376.363,216.746 382.863,212.079 391.5,210.5 Z"/></g>
<g><path style="opacity:1" fill="#a4cd4e" d="M 553.5,210.5 C 580.93,207.762 592.93,219.928 589.5,247C 589.563,255.544 589.063,264.044 588,272.5C 584.511,280.509 578.345,285.009 569.5,286C 562.833,286.667 556.167,286.667 549.5,286C 541.473,283.969 535.973,279.136 533,271.5C 532.333,256.167 532.333,240.833 533,225.5C 537.172,216.823 544.005,211.823 553.5,210.5 Z"/></g>
<g><path style="opacity:1" fill="#a4cd4e" d="M 1089.5,210.5 C 1099.71,209.575 1109.38,211.409 1118.5,216C 1121.04,218.205 1123.21,220.705 1125,223.5C 1126.97,239.82 1126.97,256.153 1125,272.5C 1123.26,277.91 1119.76,281.744 1114.5,284C 1105.31,286.393 1095.97,287.06 1086.5,286C 1079.59,284.409 1074.42,280.576 1071,274.5C 1069.38,258.234 1069.04,241.9 1070,225.5C 1070.96,221.532 1073.13,218.365 1076.5,216C 1080.74,213.651 1085.07,211.818 1089.5,210.5 Z"/></g>
<g><path style="opacity:1" fill="#87a94a" d="M 688.5,219.5 C 687.833,252.5 687.167,285.5 686.5,318.5C 686.333,283.498 686.5,248.498 687,213.5C 687.505,215.518 688.005,217.518 688.5,219.5 Z"/></g>
<g><path style="opacity:1" fill="#98ba4d" d="M 772.5,318.5 C 771.833,285.167 771.167,251.833 770.5,218.5C 770.838,216.146 771.338,213.813 772,211.5C 772.5,247.165 772.667,282.832 772.5,318.5 Z"/></g>
<g><path style="opacity:1" fill="#5a6a45" d="M 178.5,289.5 C 178.5,298.833 178.5,308.167 178.5,317.5C 222.833,317.5 267.167,317.5 311.5,317.5C 267.003,318.499 222.336,318.832 177.5,318.5C 177.173,308.652 177.506,298.986 178.5,289.5 Z"/></g>
<g><path style="opacity:1" fill="#5b6c46" d="M 875.5,284.5 C 874.502,250.004 874.168,215.337 874.5,180.5C 860.5,180.5 846.5,180.5 832.5,180.5C 832.5,226.167 832.5,271.833 832.5,317.5C 868.833,317.5 905.167,317.5 941.5,317.5C 941.5,306.5 941.5,295.5 941.5,284.5C 942.495,295.654 942.828,306.988 942.5,318.5C 905.5,318.5 868.5,318.5 831.5,318.5C 831.5,272.167 831.5,225.833 831.5,179.5C 846.167,179.5 860.833,179.5 875.5,179.5C 875.5,214.5 875.5,249.5 875.5,284.5 Z"/></g>
<g><path style="opacity:1" fill="#333641" d="M 875.5,284.5 C 897.5,284.5 919.5,284.5 941.5,284.5C 941.5,295.5 941.5,306.5 941.5,317.5C 905.167,317.5 868.833,317.5 832.5,317.5C 832.5,271.833 832.5,226.167 832.5,180.5C 846.5,180.5 860.5,180.5 874.5,180.5C 874.168,215.337 874.502,250.004 875.5,284.5 Z"/></g>
<g><path style="opacity:1" fill="#5f7246" d="M 1320.5,180.5 C 1321.5,226.33 1321.83,272.33 1321.5,318.5C 1307.66,318.829 1293.99,318.496 1280.5,317.5C 1293.83,317.5 1307.17,317.5 1320.5,317.5C 1320.5,271.833 1320.5,226.167 1320.5,180.5 Z"/></g>
</svg>
