<?xml version="1.0" standalone="no"?>
<!DOCTYPE svg PUBLIC "-//W3C//DTD SVG 20010904//EN"
 "http://www.w3.org/TR/2001/REC-SVG-20010904/DTD/svg10.dtd">
<svg version="1.0" xmlns="http://www.w3.org/2000/svg"
 width="200.000000pt" height="200.000000pt" viewBox="0 0 200.000000 200.000000"
 preserveAspectRatio="xMidYMid meet">

<g transform="translate(0.000000,200.000000) scale(0.100000,-0.100000)"
fill="#000000" stroke="none">
<path fill="#e40f0f" d="M355 1369 c-116 -72 -216 -137 -223 -143 -9 -9 -12 -32 -10 -69 l3
-56 78 49 c42 28 82 50 87 50 6 0 10 -99 10 -265 l0 -265 140 0 140 0 0 415
c0 228 -3 415 -7 415 -5 0 -102 -59 -218 -131z"/>
<path d="M660 1088 l0 -418 110 0 110 0 0 133 1 132 99 -105 100 -105 79 85
80 85 1 148 c0 81 -2 147 -4 147 -2 0 -34 -36 -71 -80 -37 -44 -70 -80 -74
-80 -7 0 -363 392 -413 454 -17 20 -18 1 -18 -396z"/>
<path fill="#e40f0f" d="M1388 1348 l-108 -123 0 -367 0 -368 270 0 270 0 0 115 0 115 -160 0
-160 0 -2 375 -3 376 -107 -123z"/>
<path d="M310 560 c0 -40 4 -70 10 -70 6 0 10 25 10 55 l0 55 45 0 45 0 0 -55
c0 -42 3 -55 15 -55 12 0 15 14 15 70 l0 70 -70 0 -70 0 0 -70z"/>
<path d="M460 560 l0 -70 70 0 c56 0 70 3 70 15 0 12 -13 15 -55 15 -42 0 -55
3 -55 15 0 11 12 15 46 15 27 0 43 4 39 10 -3 6 -24 10 -46 10 -27 0 -39 4
-39 15 0 10 15 15 55 17 81 4 73 22 -12 26 l-73 3 0 -71z"/>
<path d="M620 560 c0 -56 3 -70 15 -70 8 0 15 9 15 20 0 17 7 20 43 20 51 0
67 13 67 56 0 38 -12 44 -86 44 l-54 0 0 -70z m115 20 c0 -10 -13 -16 -42 -18
-38 -3 -43 -1 -43 18 0 19 5 21 43 18 29 -2 42 -8 42 -18z"/>
<path d="M780 560 l0 -70 59 0 c69 0 79 9 79 70 0 61 -10 70 -79 70 l-59 0 0
-70z m110 24 c0 -12 -9 -14 -42 -12 -59 4 -63 28 -4 28 35 0 46 -4 46 -16z
m-2 -51 c2 -9 -10 -13 -42 -13 -43 0 -55 7 -39 24 12 11 76 2 81 -11z"/>
<path d="M947 623 c-11 -10 -8 -133 3 -133 6 0 10 7 10 15 0 11 12 15 45 15
33 0 45 -4 45 -15 0 -8 7 -15 15 -15 11 0 15 12 15 51 0 76 -11 89 -74 89 -29
0 -56 -3 -59 -7z m101 -51 l3 -33 -43 3 c-32 2 -44 8 -46 21 -7 36 6 48 45 45
35 -3 38 -6 41 -36z"/>
<path d="M1102 618 c-18 -18 -14 -56 8 -75 18 -16 18 -18 3 -35 -15 -17 -15
-18 4 -18 11 0 28 9 38 20 10 11 26 20 37 20 11 0 18 -7 18 -20 0 -11 5 -20
10 -20 6 0 10 30 10 70 l0 70 -58 0 c-32 0 -63 -5 -70 -12z m108 -38 c0 -17
-7 -20 -45 -20 -38 0 -45 3 -45 20 0 17 7 20 45 20 38 0 45 -3 45 -20z"/>
</g>
</svg>
