<?xml version="1.0" standalone="no"?>
<!DOCTYPE svg PUBLIC "-//W3C//DTD SVG 20010904//EN"
 "http://www.w3.org/TR/2001/REC-SVG-20010904/DTD/svg10.dtd">
<svg version="1.0" xmlns="http://www.w3.org/2000/svg"
 width="1280.000000pt" height="226.000000pt" viewBox="0 0 1280.000000 226.000000"
 preserveAspectRatio="xMidYMid meet">

<g transform="translate(0.000000,226.000000) scale(0.100000,-0.100000)"
fill="#000000" stroke="none">
<path d="M1134 2106 c-38 -17 -47 -43 -64 -171 -18 -137 -24 -150 -73 -169
-24 -9 -48 -16 -54 -16 -7 0 -55 38 -107 85 -123 109 -139 119 -173 110 -40
-10 -277 -190 -291 -220 -7 -14 -12 -32 -12 -40 0 -7 32 -62 71 -121 39 -59
73 -113 76 -121 3 -7 -14 -45 -36 -83 l-42 -70 -128 0 c-70 0 -142 -5 -159
-11 -39 -14 -52 -42 -93 -211 -28 -115 -31 -141 -21 -163 27 -59 -29 -57 1290
-50 1308 8 1244 5 1258 61 4 15 -7 93 -25 182 -41 209 -33 202 -226 202 l-144
0 -31 44 c-16 25 -30 53 -30 63 0 9 32 63 70 119 70 103 80 131 57 170 -14 25
-237 210 -272 226 -13 6 -35 8 -50 4 -23 -6 -147 -116 -426 -376 -76 -71 -78
-85 -13 -96 l40 -6 185 169 c101 93 190 177 198 186 22 28 51 20 110 -31 31
-26 73 -61 94 -76 20 -16 37 -37 37 -47 0 -10 -28 -58 -61 -106 -85 -121 -87
-143 -18 -246 31 -47 62 -83 78 -89 16 -6 72 -8 147 -4 93 5 123 4 131 -6 14
-18 56 -217 49 -234 -4 -12 -63 -14 -345 -14 -213 0 -342 4 -346 10 -3 5 -13
35 -21 67 -33 129 -135 260 -245 316 -70 35 -190 60 -249 52 -202 -27 -350
-149 -410 -338 -12 -39 -26 -79 -30 -87 -6 -13 -55 -15 -351 -15 l-344 0 -2
25 c-2 14 7 66 20 115 l22 90 141 5 c105 4 146 9 159 20 10 8 45 55 77 104 77
118 77 126 -12 257 -38 57 -70 108 -70 114 0 13 187 155 204 155 6 0 57 -41
113 -90 125 -111 137 -116 204 -90 79 32 123 57 136 78 7 12 20 76 29 144 9
68 22 128 29 133 6 6 67 12 133 13 145 4 133 18 157 -173 26 -208 27 -210 78
-157 33 34 34 53 7 230 -21 141 -29 165 -60 182 -29 16 -328 12 -366 -4z m318
-838 c81 -38 151 -107 193 -191 19 -38 35 -83 35 -98 l0 -29 -372 2 -373 3 2
37 c4 70 79 185 156 240 16 12 55 32 86 45 78 33 191 29 273 -9z"/>
<path d="M3263 2030 c-97 -21 -200 -87 -252 -163 -148 -218 -57 -512 189 -609
75 -29 232 -31 305 -3 79 30 155 84 155 110 0 17 -74 85 -92 85 -8 0 -27 -9
-41 -20 -44 -35 -94 -50 -165 -50 -151 0 -252 102 -252 255 0 154 103 255 257
255 74 0 134 -22 167 -59 11 -11 24 -21 30 -21 15 0 96 82 96 96 0 12 -44 54
-80 76 -72 44 -227 67 -317 48z"/>
<path d="M7618 2030 c-130 -23 -253 -122 -301 -243 -35 -88 -38 -208 -6 -292
39 -106 127 -193 238 -236 44 -18 78 -23 161 -23 101 -1 108 1 180 35 94 45
163 112 204 199 41 87 48 205 17 294 -39 112 -126 201 -240 245 -58 24 -184
34 -253 21z m228 -175 c107 -66 146 -220 87 -342 -44 -90 -118 -133 -226 -133
-107 0 -182 45 -223 135 -46 98 -23 248 47 311 55 50 99 64 185 62 70 -3 87
-7 130 -33z"/>
<path d="M11080 2027 c-151 -34 -258 -132 -305 -275 -27 -83 -18 -210 19 -287
40 -82 120 -159 203 -197 64 -30 75 -32 183 -32 108 0 119 2 182 31 89 41 160
109 201 192 28 57 32 77 35 161 3 78 0 105 -18 152 -40 107 -130 198 -236 237
-68 26 -192 34 -264 18z m210 -158 c94 -43 140 -117 140 -229 0 -161 -96 -260
-251 -260 -117 0 -203 61 -235 166 -40 135 8 263 124 323 52 28 161 28 222 0z"/>
<path d="M5528 2023 l-58 -4 0 -383 0 -384 33 -6 c18 -3 158 -4 312 -1 154 2
285 1 292 -3 7 -5 13 -38 15 -82 l3 -75 61 -3 c43 -2 64 1 73 11 8 10 11 56 9
148 l-3 134 -40 3 c-70 6 -67 -7 -61 318 3 161 3 300 0 308 -5 13 -23 16 -85
16 -43 0 -80 -1 -81 -2 -1 -2 -5 -145 -8 -318 l-5 -315 -170 0 -170 0 -3 313
-2 313 -26 9 c-14 6 -26 9 -27 8 -1 -1 -28 -3 -59 -5z"/>
<path d="M12543 2022 l-51 -3 -57 -97 c-32 -53 -67 -113 -80 -132 -12 -19 -47
-78 -79 -131 -67 -115 -77 -126 -98 -101 -8 9 -74 117 -147 240 l-133 223 -67
-3 -66 -3 -3 -379 c-2 -297 1 -381 10 -388 20 -12 123 -9 136 4 9 9 12 73 12
225 0 189 2 213 15 205 9 -4 62 -84 118 -178 l103 -169 39 0 39 0 105 178 c58
97 111 177 117 177 21 0 24 -29 24 -235 0 -176 2 -204 16 -209 25 -10 122 -7
129 4 9 14 17 563 10 672 -8 108 -5 105 -92 100z"/>
<path d="M3807 2013 c-4 -3 -7 -177 -7 -385 0 -353 1 -378 18 -379 58 -5 133
-4 142 1 6 4 11 124 12 321 l3 314 175 0 175 0 3 -316 2 -317 31 -6 c44 -8
111 -7 127 2 9 7 12 91 10 388 l-3 379 -341 3 c-187 1 -343 -1 -347 -5z"/>
<path d="M4717 2013 c-4 -3 -7 -174 -7 -379 0 -287 3 -375 13 -381 9 -6 425
-8 570 -3 4 0 7 28 5 63 l-3 62 -199 3 c-127 1 -204 6 -213 13 -9 8 -13 37
-13 91 0 72 2 79 22 87 12 4 92 8 177 9 86 1 160 1 164 2 4 0 7 28 5 63 l-3
62 -169 3 c-104 1 -175 7 -183 13 -14 13 -18 135 -5 156 6 9 63 13 207 15
l200 3 0 60 0 60 -281 3 c-154 1 -283 -1 -287 -5z"/>
<path d="M6506 2004 c-3 -9 -6 -79 -6 -157 0 -177 -21 -338 -51 -400 -22 -44
-45 -61 -94 -69 -19 -3 -20 -11 -20 -148 l0 -145 70 0 70 0 3 73 c3 67 5 74
27 82 20 8 243 8 532 1 21 -1 22 -6 25 -78 l3 -78 65 0 65 0 0 145 0 145 -45
5 -45 5 -5 315 c-3 173 -7 316 -8 318 -1 1 -132 2 -291 2 -254 0 -290 -2 -295
-16z m428 -130 c11 -28 7 -454 -4 -475 -10 -18 -23 -19 -175 -19 -96 0 -166 4
-170 10 -3 5 -1 19 5 30 24 44 42 161 49 303 5 115 9 150 21 157 8 5 72 10
141 10 107 0 128 -3 133 -16z"/>
<path d="M8298 2014 c-5 -4 -8 -177 -8 -385 l0 -378 43 -5 c35 -5 76 -4 119 3
4 1 9 49 10 109 l3 107 125 6 c164 8 216 25 285 92 71 69 91 133 74 232 -15
90 -53 139 -143 185 l-69 35 -216 3 c-119 2 -219 0 -223 -4z m412 -144 c54
-28 70 -55 70 -118 0 -113 -46 -144 -207 -140 l-108 3 -3 124 c-1 69 0 131 2
138 4 9 32 13 106 13 81 0 109 -4 140 -20z"/>
<path d="M9094 1994 c-7 -26 1 -733 8 -739 9 -9 135 -13 148 -5 13 8 16 59 20
322 l5 313 173 3 172 2 1 -37 c0 -21 2 -163 4 -316 2 -153 6 -281 10 -285 3
-3 36 -8 72 -10 56 -4 69 -2 80 14 10 14 13 94 13 375 0 197 -3 364 -6 373 -5
14 -46 16 -350 16 l-344 0 -6 -26z"/>
<path d="M10010 1637 c0 -342 2 -386 16 -391 22 -9 127 -7 141 2 8 5 13 44 15
112 l3 105 130 6 c135 7 190 20 248 61 76 53 106 115 107 214 0 120 -49 193
-165 245 -46 20 -69 23 -272 27 l-223 4 0 -385z m417 234 c50 -23 73 -63 73
-123 0 -55 -17 -87 -60 -116 -31 -21 -43 -22 -144 -20 l-111 3 -3 124 c-1 69
0 131 2 138 9 22 191 17 243 -6z"/>
<path fill="#f20c0c" d="M3110 780 c-7 -12 -9 -100 -8 -242 l3 -223 38 -3 37 -3 0 198 c0 142
3 202 12 211 8 8 48 12 115 12 l103 0 0 29 c0 17 -6 31 -16 35 -9 3 -74 6
-144 6 -118 0 -130 -2 -140 -20z"/>
<path fill="#f20c0c" d="M3517 793 c-4 -3 -7 -114 -7 -245 l0 -239 38 3 37 3 5 80 5 80 87 5
c102 6 131 22 166 92 20 40 22 51 12 92 -15 69 -35 93 -96 116 -41 15 -79 20
-148 20 -51 0 -96 -3 -99 -7z m223 -78 c28 -15 30 -19 30 -75 0 -52 -3 -61
-27 -80 -22 -17 -38 -20 -87 -18 l-61 3 -3 84 c-2 61 1 87 10 92 22 14 107 10
138 -6z"/>
<path fill="#f20c0c" d="M3955 790 c-3 -5 33 -86 81 -181 80 -160 85 -173 73 -197 -8 -14 -31
-32 -51 -40 -29 -11 -38 -21 -38 -39 0 -20 5 -23 36 -23 64 0 99 48 193 268
45 107 80 200 77 208 -3 8 -17 14 -30 14 -29 0 -41 -20 -96 -158 -24 -61 -37
-82 -49 -80 -9 2 -37 46 -66 105 -27 55 -56 108 -64 117 -15 18 -56 22 -66 6z"/>
<path fill="#f20c0c" d="M4461 786 c-8 -9 -11 -80 -9 -242 l3 -229 35 0 35 0 3 200 c2 144 6
201 15 207 20 13 201 10 215 -4 9 -9 12 -69 12 -210 l0 -198 35 0 35 0 -2 243
-3 242 -181 3 c-145 2 -183 0 -193 -12z"/>
<path fill="#f20c0c"  d="M5007 793 c-4 -3 -7 -114 -7 -245 l0 -238 35 0 35 0 0 198 c0 141 3
201 12 210 14 14 195 17 215 4 9 -6 13 -63 15 -207 l3 -200 35 0 35 0 3 234
c2 181 -1 236 -10 243 -16 9 -362 11 -371 1z"/>
<path fill="#f20c0c" d="M5672 787 c-6 -7 -25 -53 -41 -102 -17 -50 -51 -148 -76 -219 -25
-71 -45 -135 -45 -143 0 -17 66 -18 77 0 4 6 15 32 23 57 l15 45 96 3 c107 3
108 3 132 -68 14 -43 17 -45 56 -48 25 -2 41 1 41 8 0 6 -25 81 -56 168 -31
86 -65 185 -75 219 -11 34 -26 69 -35 78 -19 18 -97 20 -112 2z m102 -180 c15
-48 26 -94 22 -102 -4 -11 -22 -15 -70 -15 -36 0 -67 4 -71 9 -6 11 42 168 58
189 18 24 32 6 61 -81z"/>
<path fill="#f20c0c" d="M6288 780 c-32 -17 -87 -85 -77 -95 2 -2 15 -6 29 -10 20 -5 32 1 58
30 27 28 41 35 72 35 21 0 46 -3 55 -6 24 -9 46 -60 39 -89 -9 -35 -30 -49
-83 -55 -41 -4 -46 -8 -46 -30 0 -22 5 -26 47 -30 61 -7 88 -32 88 -81 0 -46
-36 -79 -87 -79 -39 0 -88 22 -96 45 -4 9 -19 15 -42 15 -41 0 -47 -22 -15
-62 30 -38 80 -58 149 -58 104 0 181 55 181 129 0 46 -23 79 -66 97 -37 16
-45 39 -16 48 33 11 65 54 64 85 -3 104 -147 167 -254 111z"/>
<path fill="#f20c0c" d="M6813 788 c-11 -14 -14 -23 -103 -276 -33 -95 -60 -179 -60 -187 0
-19 65 -21 77 -2 4 6 15 32 24 57 l15 45 96 3 c106 3 105 4 133 -70 17 -46 19
-48 56 -48 22 0 39 2 39 5 0 10 -42 139 -55 170 -7 17 -32 88 -56 158 -23 71
-49 135 -56 143 -18 17 -97 18 -110 2z m94 -163 c13 -38 24 -82 26 -99 2 -28
-1 -31 -38 -38 -22 -4 -52 -5 -67 -2 -36 7 -36 28 -2 134 32 103 49 104 81 5z"/>
<path fill="#f20c0c" d="M7202 792 c-9 -7 -12 -62 -10 -243 l3 -234 130 0 c112 0 135 3 165
20 82 48 87 151 10 200 -48 31 -55 42 -30 50 58 18 82 121 37 163 -38 36 -102
52 -201 52 -50 0 -97 -4 -104 -8z m226 -78 c16 -11 22 -25 22 -54 0 -55 -28
-72 -112 -68 l-63 3 -3 59 c-2 41 1 62 10 67 23 15 122 10 146 -7z m20 -209
c28 -32 28 -79 2 -105 -18 -18 -31 -20 -98 -18 l-77 3 -3 72 c-3 83 -2 84 93
78 49 -4 64 -10 83 -30z"/>
<path fill="#f20c0c" d="M7773 783 c-119 -42 -176 -232 -109 -361 27 -52 90 -100 141 -108
145 -21 240 38 273 168 16 62 15 94 -3 156 -39 131 -168 193 -302 145z m158
-69 c42 -21 69 -83 69 -162 0 -78 -19 -126 -62 -152 -39 -24 -107 -26 -147 -5
-92 47 -93 270 -3 320 36 19 106 19 143 -1z"/>
<path fill="#f20c0c" d="M8286 788 c-3 -7 -7 -49 -10 -93 -18 -234 -33 -286 -89 -313 -26 -13
-27 -15 -27 -103 l0 -89 35 0 35 0 0 54 c0 40 4 55 16 60 31 12 309 7 322 -6
7 -7 12 -34 12 -61 l0 -48 33 3 32 3 3 88 c3 85 2 87 -23 97 l-25 10 0 193 c0
137 -3 196 -12 205 -17 17 -297 17 -302 0z m217 -71 c16 -11 17 -30 15 -172
l-3 -160 -105 0 c-88 0 -105 2 -103 15 2 8 12 56 23 105 10 50 19 115 20 146
0 30 5 60 12 67 16 16 119 15 141 -1z"/>
<path fill="#f20c0c" d="M8880 784 c-42 -18 -96 -68 -118 -109 -11 -21 -16 -57 -16 -120 -1
-80 2 -95 26 -136 15 -25 46 -59 69 -75 38 -26 50 -29 125 -29 75 0 86 3 126
30 109 76 132 257 47 377 -47 66 -178 97 -259 62z m150 -67 c13 -7 35 -28 47
-46 19 -29 23 -47 23 -118 0 -128 -37 -173 -140 -173 -45 0 -56 4 -85 33 -53
53 -66 125 -40 214 21 70 61 103 123 103 26 0 58 -6 72 -13z"/>
<path fill="#f20c0c" d="M9303 788 c-9 -11 -10 -123 -4 -405 l1 -73 108 0 c125 0 171 11 215
50 28 25 32 35 32 80 0 45 -4 55 -31 78 -17 15 -39 32 -50 38 -18 11 -16 14
21 47 34 29 40 40 40 75 0 53 -39 96 -100 111 -61 15 -220 14 -232 -1z m237
-80 c27 -29 26 -72 -2 -98 -19 -18 -33 -20 -93 -18 l-70 3 -3 59 c-4 71 1 76
85 76 51 0 66 -4 83 -22z m-42 -174 c47 -10 72 -38 72 -84 0 -53 -26 -70 -106
-70 -92 0 -94 2 -94 76 0 49 4 65 18 73 20 12 65 14 110 5z"/>
<path d="M170 580 c-24 -24 -25 -34 -4 -54 12 -13 39 -16 129 -16 116 0 145 9
145 45 0 32 -42 45 -147 45 -90 0 -106 -3 -123 -20z"/>
<path  d="M508 589 c-24 -13 -23 -56 1 -69 28 -14 234 -13 249 2 18 18 14 56
-7 68 -25 13 -220 13 -243 -1z"/>
<path d="M842 588 c-18 -18 -14 -56 7 -68 11 -5 67 -10 124 -10 88 0 106 3
120 18 21 23 21 36 1 56 -20 20 -233 23 -252 4z"/>
<path d="M1176 585 c-18 -19 -20 -33 -6 -55 7 -12 36 -16 124 -18 106 -3 116
-2 136 18 19 19 20 24 7 43 -13 20 -24 22 -130 25 -95 2 -118 0 -131 -13z"/>
<path d="M1523 590 c-23 -9 -28 -20 -23 -50 4 -26 22 -30 137 -30 90 0 115 3
128 16 21 22 15 46 -15 61 -29 15 -193 17 -227 3z"/>
<path  d="M1850 580 c-24 -24 -25 -34 -4 -54 12 -13 39 -16 128 -16 119 0 136
6 136 47 0 33 -34 43 -146 43 -81 0 -97 -3 -114 -20z"/>
<path   d="M2188 589 c-24 -13 -23 -56 1 -69 11 -5 67 -10 125 -10 82 0 108 3
120 16 22 21 20 51 -3 64 -25 13 -220 13 -243 -1z"/>
<path  d="M1271 300 c-885 -5 -945 -6 -955 -23 -8 -12 -8 -22 0 -35 11 -16 68
-17 984 -17 916 0 973 1 984 17 15 25 -3 51 -40 58 -16 3 -454 3 -973 0z"/>
</g>
</svg>
