<?xml version="1.0" standalone="no"?>
<!DOCTYPE svg PUBLIC "-//W3C//DTD SVG 20010904//EN"
 "http://www.w3.org/TR/2001/REC-SVG-20010904/DTD/svg10.dtd">
<svg version="1.0" xmlns="http://www.w3.org/2000/svg"
 width="260" height="90" viewBox="100 100 100 100"
 preserveAspectRatio="xMidYMid meet">

<g transform="translate(0.000000,304.000000) scale(0.100000,-0.100000)"
fill="#000000" stroke="none">
<path  d="M262 1728 c-27 -13 -27 -10 14 -218 32 -161 47 -192 98 -204 25 -5
51 -5 76 3 37 11 37 12 55 93 20 90 17 92 50 -24 14 -51 20 -58 51 -68 40 -13
107 -5 124 15 14 16 55 213 65 310 8 75 -7 105 -55 105 -47 0 -57 -17 -69
-130 -25 -221 -25 -222 -56 -90 -9 41 -23 85 -31 96 -15 24 -54 35 -92 25 -24
-7 -29 -17 -53 -117 -19 -81 -28 -103 -32 -84 -7 26 -37 233 -37 250 0 19 -40
50 -62 49 -13 0 -33 -5 -46 -11z"/>
<path d="M959 1729 c-22 -8 -32 -29 -77 -162 -74 -219 -75 -224 -51 -248 14
-14 31 -19 57 -17 33 3 38 7 52 48 l16 45 64 0 64 0 8 -35 c5 -19 17 -41 26
-47 21 -17 64 -16 87 1 18 13 18 19 -28 175 -59 204 -70 229 -102 241 -32 12
-81 12 -116 -1z m85 -167 c9 -32 16 -61 16 -65 0 -4 -20 -7 -44 -7 l-44 0 21
65 c12 36 24 65 28 65 3 0 14 -26 23 -58z"/>
<path d="M1267 1733 c-11 -10 -8 -382 3 -403 11 -21 60 -35 90 -25 18 6 20 15
20 83 l0 77 76 -82 c46 -51 83 -83 96 -83 27 0 56 17 69 41 9 18 2 30 -60 98
l-70 78 40 39 c100 96 109 159 27 178 -23 5 -33 -3 -94 -74 -37 -44 -71 -80
-76 -80 -4 0 -8 31 -8 70 0 58 -3 71 -19 80 -22 11 -84 14 -94 3z"/>
<path d="M1702 1724 c-21 -15 -22 -20 -22 -200 0 -237 -9 -226 168 -222 122 3
127 4 138 27 7 14 9 33 5 45 -7 19 -17 21 -100 24 l-91 3 0 39 0 40 80 0 c76
0 80 1 86 24 3 14 3 34 -1 45 -6 19 -14 21 -86 21 l-79 0 0 35 0 35 83 0 c88
0 107 8 107 46 0 53 -3 54 -139 54 -98 0 -131 -3 -149 -16z"/>
<path fill="#FF512A" d="M2063 1733 c-10 -3 -13 -44 -13 -156 0 -125 3 -158 18 -186 23 -46
59 -71 117 -82 93 -17 179 22 211 98 15 35 20 288 6 310 -10 16 -56 26 -81 18
-20 -6 -21 -13 -21 -150 0 -164 -9 -188 -70 -188 -60 0 -70 25 -70 178 0 108
-3 137 -16 149 -15 15 -55 20 -81 9z"/>
<path fill="#FF512A" d="M2530 1731 c-62 -13 -60 -6 -60 -217 l0 -194 27 -11 c14 -5 39 -7 55
-4 l28 7 0 108 0 109 -27 3 c-16 2 -29 10 -31 20 -3 17 76 116 95 117 17 1
104 -100 101 -118 -2 -9 -15 -17 -31 -19 -25 -3 -27 -7 -27 -48 0 -43 1 -44
28 -38 46 11 73 34 94 81 35 79 11 150 -65 189 -33 18 -138 26 -187 15z"/>
</g>
</svg>
