<?xml version="1.0" standalone="no"?>
<!DOCTYPE svg PUBLIC "-//W3C//DTD SVG 20010904//EN"
 "http://www.w3.org/TR/2001/REC-SVG-20010904/DTD/svg10.dtd">
<svg version="1.0" xmlns="http://www.w3.org/2000/svg"
 width="280" height="90" viewBox="100 0 413.000000 260"
 preserveAspectRatio="xMidYMid meet">

<g transform="translate(0.000000,300.000000) scale(0.100000,-0.100000)"
fill="#000000" stroke="none">
<path fill="#38383F" d="M1231 2888 c-12 -57 -25 -106 -29 -109 -11 -10 -252 -99 -268 -99 -8
0 -51 29 -97 64 l-83 65 -141 -129 -141 -128 55 -96 56 -97 -69 -139 c-37 -77
-69 -140 -70 -140 -5 0 -183 -31 -201 -35 -23 -5 -23 -6 -23 -200 l0 -194 37
-10 c21 -6 69 -18 108 -26 l71 -16 62 -147 61 -146 -56 -105 -56 -105 65 -61
c35 -33 98 -91 141 -129 l77 -68 82 67 c90 74 85 73 187 31 l63 -25 -6 52 c-3
29 -8 84 -12 122 l-6 71 -55 34 c-31 19 -87 69 -127 111 -137 146 -195 284
-204 480 -4 96 -1 129 17 198 37 141 102 253 209 358 61 61 197 152 208 140 4
-3 12 -138 20 -299 7 -161 16 -353 20 -427 l6 -134 30 59 c42 82 83 140 146
206 l54 57 -32 98 c-18 54 -35 103 -37 109 -2 6 8 16 22 22 25 11 26 10 51
-46 14 -31 32 -74 41 -94 l15 -38 31 24 c18 14 62 42 98 63 l67 39 -163 215
c-187 245 -185 226 -27 228 221 2 427 -81 579 -236 l72 -73 133 12 c73 6 135
13 137 15 2 1 -4 21 -14 44 l-19 40 50 101 49 100 -110 105 c-60 57 -121 112
-135 122 l-26 19 -93 -67 -93 -68 -140 52 c-77 29 -144 58 -148 66 -4 8 -10
32 -14 54 -4 22 -11 64 -17 93 l-10 52 -188 0 -188 0 -22 -102z m50 -569 c27
-63 27 -64 8 -73 -24 -11 -31 -3 -55 67 -16 49 -13 82 8 75 6 -2 24 -33 39
-69z"/>
<path fill="#38383F" d="M2660 2700 c0 -118 0 -120 24 -126 57 -14 61 -7 64 104 l3 102 74 0
c68 0 75 2 75 20 0 19 -7 20 -120 20 l-120 0 0 -120z"/>
<path fill="#38383F" d="M2950 2525 l0 -295 40 0 40 0 0 50 c0 34 4 50 13 50 7 0 35 -22 62
-50 46 -47 52 -50 99 -50 l50 0 -58 59 -58 59 27 36 c18 24 36 36 51 36 19 0
24 5 24 25 0 23 -4 25 -42 25 -37 0 -47 -5 -88 -50 -75 -81 -80 -75 -80 95 l0
145 50 0 c95 0 151 43 136 105 -10 39 -58 55 -171 55 l-95 0 0 -295z m174 233
c18 -29 -4 -53 -53 -56 l-41 -3 0 41 0 41 41 -3 c27 -2 46 -9 53 -20z"/>
<path fill="#38383F" d="M3306 2730 c36 -49 63 -94 59 -100 -3 -5 -26 -10 -51 -10 -41 0 -45
-2 -42 -22 3 -21 8 -23 62 -21 32 1 69 9 81 17 20 13 127 172 142 212 4 11 -5
14 -39 14 -43 0 -44 -1 -71 -55 -15 -30 -30 -55 -34 -55 -5 0 -24 25 -43 55
-34 54 -36 55 -82 55 l-48 0 66 -90z"/>
<path fill="#38383F" d="M3612 2698 c3 -133 6 -138 64 -124 23 6 24 9 24 106 l0 100 60 0 60
0 0 -92 c0 -51 4 -99 9 -106 5 -8 22 -12 42 -10 l34 3 3 123 3 122 -151 0
-151 0 3 -122z"/>
<path fill="#38383F" d="M3992 2698 l3 -123 40 0 40 0 3 103 3 103 62 -3 62 -3 5 -100 5 -100
35 0 35 0 3 123 3 122 -151 0 -151 0 3 -122z"/>
<path fill="#38383F" d="M4397 2703 c-31 -64 -54 -120 -51 -125 6 -10 55 -10 69 0 6 4 15 16
21 27 9 16 23 21 68 23 52 3 57 1 68 -23 13 -28 50 -42 77 -29 17 8 14 19 -38
126 l-56 117 -51 1 -51 0 -56 -117z m143 -25 c0 -5 -16 -8 -35 -8 -39 0 -42 7
-19 52 l17 32 18 -35 c10 -19 18 -37 19 -41z"/>
<path fill="#38383F" d="M5656 2537 c16 -42 145 -61 203 -30 19 10 37 24 39 31 5 18 -63 16
-78 -3 -7 -8 -28 -15 -47 -15 -21 0 -36 6 -39 15 -4 10 -20 15 -45 15 -27 0
-37 -4 -33 -13z"/>
<path fill="#0D66A4"  d="M1475 2414 c54 -69 182 -237 202 -263 2 -3 45 9 96 26 50 17 118 37
150 44 31 8 57 17 57 20 0 15 -131 126 -191 162 -85 50 -205 87 -304 94 l-79
6 69 -89z"/>
<path fill="#38383F"  d="M3425 2475 c-5 -2 -27 -6 -47 -9 -20 -4 -50 -20 -67 -35 -27 -25 -31
-36 -31 -81 0 -43 5 -56 28 -80 37 -36 102 -54 170 -46 68 8 108 29 127 66 32
61 14 126 -44 158 -34 19 -114 35 -136 27z m85 -65 c29 -29 27 -94 -5 -125
-71 -72 -179 26 -126 113 18 28 26 32 66 32 32 0 51 -6 65 -20z"/>
<path fill="#38383F" d="M3680 2351 c0 -115 1 -119 23 -123 51 -9 56 -2 59 85 l3 81 35 -55
c26 -40 42 -55 62 -57 24 -3 32 4 60 50 l33 53 5 -79 5 -79 40 -1 40 -1 3 123
3 122 -53 0 -53 0 -39 -60 c-21 -33 -39 -60 -41 -60 -2 0 -20 27 -41 60 l-39
60 -52 0 -53 0 0 -119z"/>
<path fill="#38383F" d="M4130 2351 l0 -119 33 -5 c17 -2 35 -3 40 0 4 2 7 49 7 104 l0 99 65
0 65 0 0 -99 0 -99 38 -5 c20 -2 40 -2 45 0 4 2 7 58 7 124 l0 119 -150 0
-150 0 0 -119z"/>
<path fill="#38383F" d="M4535 2354 c-30 -63 -55 -117 -55 -120 0 -2 18 -4 40 -4 33 0 42 4
52 25 10 22 17 25 68 25 51 0 58 -3 68 -25 10 -21 19 -25 52 -25 22 0 40 4 40
9 0 5 -25 59 -55 120 l-55 111 -50 0 -50 0 -55 -116z m124 15 c16 -46 15 -49
-23 -49 l-34 0 15 40 c9 22 19 40 24 40 4 0 12 -14 18 -31z"/>
<path fill="#38383F" d="M4850 2352 c0 -65 2 -121 4 -123 3 -3 23 -3 45 -1 l41 4 0 55 0 54
63 -3 62 -3 3 -52 3 -53 40 0 39 0 0 120 0 120 -40 0 -40 0 0 -45 0 -45 -65 0
-65 0 0 45 0 45 -45 0 -45 0 0 -118z"/>
<path fill="#38383F" d="M5230 2352 c0 -65 2 -121 4 -123 3 -3 23 -3 45 -1 37 4 47 12 103 78
34 41 66 74 70 74 4 0 8 -34 8 -75 l0 -75 40 0 40 0 0 120 0 120 -44 0 c-42 0
-47 -3 -110 -72 l-65 -73 -1 73 0 72 -45 0 -45 0 0 -118z"/>
<path fill="#38383F" d="M5620 2350 l0 -120 44 0 c42 0 45 3 105 75 34 41 67 75 72 75 5 0 9
-34 9 -75 l0 -75 40 0 40 0 0 120 0 120 -47 0 c-47 0 -49 -2 -108 -71 l-60
-71 -3 71 -3 71 -44 0 -45 0 0 -120z"/>
<path fill="#D12421"  d="M941 2315 c-85 -81 -154 -187 -189 -293 -22 -67 -26 -94 -26 -207 0
-114 4 -140 27 -210 44 -132 125 -252 227 -331 30 -24 58 -40 62 -36 4 4 10
59 14 122 7 128 -24 1000 -36 1013 -4 5 -40 -21 -79 -58z"/>
<path fill="#38383F" d="M2003 2055 c-528 -96 -856 -566 -733 -1050 75 -294 324 -532 655
-626 l80 -23 958 -3 957 -4 0 60 0 60 38 10 c54 16 54 15 85 -39 25 -47 29
-50 50 -39 27 15 183 106 214 125 l23 14 -31 51 -32 50 33 34 33 35 53 -31
c40 -23 54 -27 61 -17 4 7 38 65 74 128 l67 115 -49 30 c-53 33 -54 33 -38 88
l10 37 59 0 60 0 0 150 0 150 -59 0 c-33 0 -62 3 -65 8 -2 4 -7 24 -11 44 -7
36 -6 38 39 65 25 15 46 32 46 36 0 5 -16 38 -36 73 l-36 64 186 0 186 0 2
-646 3 -645 238 237 237 238 0 408 0 408 285 0 285 0 0 210 0 210 -1485 0
-1485 0 0 -655 0 -655 -433 0 c-357 0 -443 3 -492 15 -179 47 -307 188 -335
371 -40 260 175 504 446 504 l51 0 212 210 212 210 -273 -1 c-177 0 -298 -5
-345 -14z m1857 -434 c164 -67 265 -206 277 -382 16 -216 -120 -411 -322 -463
-44 -12 -111 -16 -257 -16 l-198 0 0 446 0 446 223 -4 c202 -4 227 -6 277 -27z"/>
</g>
</svg>
