<?xml version="1.0" encoding="UTF-8"?>
<!DOCTYPE svg PUBLIC "-//W3C//DTD SVG 1.1//EN" "http://www.w3.org/Graphics/SVG/1.1/DTD/svg11.dtd">
<svg xmlns="http://www.w3.org/2000/svg" version="1.1" width="280" height="90" viewBox="500 -80 413.000000 430" style="shape-rendering:geometricPrecision; text-rendering:geometricPrecision; image-rendering:optimizeQuality; fill-rule:evenodd; clip-rule:evenodd" xmlns:xlink="http://www.w3.org/1999/xlink">
<g><path style="opacity:0.968" fill="#2fc6f7" d="M 229.5,-0.5 C 233.167,-0.5 236.833,-0.5 240.5,-0.5C 261.449,6.40014 268.282,20.4001 261,41.5C 252.597,53.8575 241.097,58.3575 226.5,55C 210.35,49.1391 203.85,37.6391 207,20.5C 210.412,9.05578 217.912,2.05578 229.5,-0.5 Z"/></g>
<g><path style="opacity:0.966" fill="#2fc6f7" d="M 612.5,-0.5 C 616.167,-0.5 619.833,-0.5 623.5,-0.5C 642.788,4.99461 650.288,17.6613 646,37.5C 638.56,52.8824 626.394,58.7158 609.5,55C 593.874,49.2582 587.374,38.0915 590,21.5C 593.455,9.87625 600.955,2.54292 612.5,-0.5 Z"/></g>
<g><path style="opacity:0.985" fill="#2fc6f7" d="M -0.5,12.5 C 27.1687,12.3334 54.8353,12.5 82.5,13C 106.23,13.3445 126.063,22.1778 142,39.5C 154.395,57.2038 157.729,76.5371 152,97.5C 147.182,112.311 138.015,123.477 124.5,131C 159.533,142.858 175.033,167.358 171,204.5C 165.293,234.21 148.126,254.043 119.5,264C 111.131,266.304 102.798,268.138 94.5,269.5C 62.8333,269.5 31.1667,269.5 -0.5,269.5C -0.5,183.833 -0.5,98.1667 -0.5,12.5 Z M 46.5,52.5 C 56.8387,52.3335 67.172,52.5002 77.5,53C 101.408,57.9704 110.908,72.4704 106,96.5C 100.617,109.63 90.7841,117.13 76.5,119C 66.5056,119.5 56.5056,119.666 46.5,119.5C 46.5,97.1667 46.5,74.8333 46.5,52.5 Z M 46.5,158.5 C 59.1711,158.333 71.8377,158.5 84.5,159C 118.091,162.694 129.591,180.527 119,212.5C 115.002,218.831 109.502,223.331 102.5,226C 95.3566,228.362 88.0233,229.695 80.5,230C 69.1716,230.5 57.8382,230.667 46.5,230.5C 46.5,206.5 46.5,182.5 46.5,158.5 Z"/></g>
<g><path style="opacity:0.975" fill="#2fc6f7" d="M 403.5,269.5 C 384.833,269.5 366.167,269.5 347.5,269.5C 332.992,263.149 324.159,252.149 321,236.5C 319.544,198.531 319.044,160.531 319.5,122.5C 308.5,122.5 297.5,122.5 286.5,122.5C 286.5,109.833 286.5,97.1667 286.5,84.5C 297.5,84.5 308.5,84.5 319.5,84.5C 319.333,70.496 319.5,56.496 320,42.5C 335.175,37.9422 350.342,33.2756 365.5,28.5C 366.5,47.1548 366.833,65.8214 366.5,84.5C 385.167,84.5 403.833,84.5 422.5,84.5C 418.833,97.1667 415.167,109.833 411.5,122.5C 396.5,122.5 381.5,122.5 366.5,122.5C 366.333,153.168 366.5,183.835 367,214.5C 366.287,227.12 372.121,234.12 384.5,235.5C 388.876,234.882 393.21,234.048 397.5,233C 403.009,231.073 408.342,228.906 413.5,226.5C 417.676,237.025 422.01,247.525 426.5,258C 426.355,258.772 426.022,259.439 425.5,260C 418.342,263.875 411.009,267.042 403.5,269.5 Z"/></g>
<g><path style="opacity:0.973" fill="#006098" d="M 1041.5,269.5 C 989.5,269.5 937.5,269.5 885.5,269.5C 886.753,239.019 896.92,212.019 916,188.5C 934.082,169.739 953.915,153.239 975.5,139C 983.601,132.58 989.768,124.746 994,115.5C 998.438,94.8757 990.271,82.709 969.5,79C 946.482,77.6706 924.815,82.504 904.5,93.5C 899.646,83.4553 895.646,72.9553 892.5,62C 908.041,53.3745 924.708,47.7078 942.5,45C 962.397,42.2082 982.064,43.2082 1001.5,48C 1029.95,59.0486 1042.45,79.8819 1039,110.5C 1036.36,127.291 1028.86,141.458 1016.5,153C 1002.2,165.148 987.531,176.814 972.5,188C 962.586,195.912 954.086,205.078 947,215.5C 943.653,221.188 941.153,227.188 939.5,233.5C 973.5,233.5 1007.5,233.5 1041.5,233.5C 1041.5,245.5 1041.5,257.5 1041.5,269.5 Z"/></g>
<g><path style="opacity:0.981" fill="#006098" d="M 1185.5,269.5 C 1171.83,269.5 1158.17,269.5 1144.5,269.5C 1144.5,251.167 1144.5,232.833 1144.5,214.5C 1111.5,214.5 1078.5,214.5 1045.5,214.5C 1045.33,204.828 1045.5,195.161 1046,185.5C 1082.5,138.333 1119,91.1667 1155.5,44C 1165.49,43.5002 1175.49,43.3335 1185.5,43.5C 1185.5,89.1667 1185.5,134.833 1185.5,180.5C 1196.83,180.5 1208.17,180.5 1219.5,180.5C 1219.5,191.833 1219.5,203.167 1219.5,214.5C 1208.17,214.5 1196.83,214.5 1185.5,214.5C 1185.5,232.833 1185.5,251.167 1185.5,269.5 Z M 1145.5,108.5 C 1146.16,109.964 1146.49,111.631 1146.5,113.5C 1144.92,135.804 1144.26,158.137 1144.5,180.5C 1127.15,180.474 1109.81,180.64 1092.5,181C 1110.54,157.07 1128.21,132.903 1145.5,108.5 Z"/></g>
<g><path style="opacity:0.944" fill="#006098" d="M 1437.5,123.5 C 1437.5,131.5 1437.5,139.5 1437.5,147.5C 1427.13,193.48 1398.3,218.48 1351,222.5C 1306.46,219.283 1278.13,196.283 1266,153.5C 1259.87,113.281 1273.7,82.114 1307.5,60C 1340.16,43.3721 1371.82,45.0388 1402.5,65C 1421.75,79.9992 1433.41,99.4992 1437.5,123.5 Z M 1341.5,65.5 C 1389,64.9979 1415.67,88.3312 1421.5,135.5C 1419.19,166.62 1403.86,188.453 1375.5,201C 1343.43,210.778 1316.6,202.945 1295,177.5C 1275.22,147.478 1276.22,118.144 1298,89.5C 1309.9,76.6372 1324.4,68.6372 1341.5,65.5 Z"/></g>
<g><path style="opacity:0.979" fill="#2fc6f7" d="M 498.5,269.5 C 482.833,269.5 467.167,269.5 451.5,269.5C 451.5,207.833 451.5,146.167 451.5,84.5C 464.837,84.3334 478.171,84.5001 491.5,85C 493.405,91.4494 495.238,97.9494 497,104.5C 506.989,94.089 518.822,86.589 532.5,82C 544.03,79.5664 555.363,80.2331 566.5,84C 569.21,85.0152 571.543,86.5152 573.5,88.5C 568.167,101.167 562.833,113.833 557.5,126.5C 557,126.833 556.5,127.167 556,127.5C 542.072,119.376 528.238,119.542 514.5,128C 509.333,131.833 504.167,135.667 499,139.5C 498.5,182.832 498.333,226.165 498.5,269.5 Z"/></g>
<g><path style="opacity:0.989" fill="#2fc6f7" d="M 258.5,269.5 C 242.833,269.5 227.167,269.5 211.5,269.5C 211.5,207.833 211.5,146.167 211.5,84.5C 227.167,84.5 242.833,84.5 258.5,84.5C 258.5,146.167 258.5,207.833 258.5,269.5 Z"/></g>
<g><path style="opacity:0.969" fill="#2fc6f7" d="M 642.5,269.5 C 626.5,269.5 610.5,269.5 594.5,269.5C 594.5,207.833 594.5,146.167 594.5,84.5C 610.5,84.5 626.5,84.5 642.5,84.5C 642.5,146.167 642.5,207.833 642.5,269.5 Z"/></g>
<g><path style="opacity:0.971" fill="#2fc6f7" d="M 853.5,269.5 C 837.167,269.5 820.833,269.5 804.5,269.5C 790.212,249.214 775.546,229.214 760.5,209.5C 745.422,229.238 730.756,249.238 716.5,269.5C 699.833,269.5 683.167,269.5 666.5,269.5C 689.142,238.518 711.809,207.518 734.5,176.5C 713.911,147.656 693.078,118.99 672,90.5C 670.441,88.7834 669.608,86.7834 669.5,84.5C 685.837,84.3334 702.17,84.5001 718.5,85C 732.667,104.5 746.833,124 761,143.5C 775.378,123.911 789.878,104.411 804.5,85C 820.844,84.1671 837.177,84.3337 853.5,85.5C 831.411,116.011 809.077,146.345 786.5,176.5C 809.271,207.257 831.604,238.257 853.5,269.5 Z"/></g>
<g><path style="opacity:0.906" fill="#006098" d="M 1344.5,91.5 C 1348.83,91.5 1353.17,91.5 1357.5,91.5C 1357.5,105.833 1357.5,120.167 1357.5,134.5C 1371.83,134.5 1386.17,134.5 1400.5,134.5C 1400.5,138.833 1400.5,143.167 1400.5,147.5C 1381.83,147.5 1363.17,147.5 1344.5,147.5C 1344.5,128.833 1344.5,110.167 1344.5,91.5 Z"/></g>
</svg>
