<?xml version="1.0" standalone="no"?>
<!DOCTYPE svg PUBLIC "-//W3C//DTD SVG 20010904//EN"
 "http://www.w3.org/TR/2001/REC-SVG-20010904/DTD/svg10.dtd">
<svg version="1.0" xmlns="http://www.w3.org/2000/svg"
 width="280" height="90" viewBox="450 -60 100 320"
 preserveAspectRatio="xMidYMid meet">

<g transform="translate(0.000000,212.000000) scale(0.100000,-0.100000)"
fill="#000000" stroke="none">
<path fill="#1864AB" d="M380 1730 c0 -11 -188 -1123 -195 -1157 l-5 -23 154 0 154 0 12 68
c6 37 39 235 73 440 l62 374 124 65 c114 61 123 64 118 42 -3 -13 -38 -212
-76 -442 -39 -230 -73 -423 -77 -428 -3 -5 -54 -34 -112 -64 l-107 -54 436 0
435 -1 97 583 c54 320 97 588 97 595 0 9 -40 12 -165 12 -91 0 -165 -1 -166
-2 0 -2 -21 -124 -47 -272 l-47 -269 -115 -63 c-92 -49 -116 -58 -118 -45 -3
16 84 530 91 537 2 2 50 29 108 59 l104 55 -417 0 c-265 0 -418 -4 -418 -10z"/>
<path fill="#1864AB"  d="M2101 1593 c-5 -21 -16 -66 -24 -100 l-14 -63 98 0 c88 0 99 2 109
20 10 19 8 20 -76 20 -74 0 -85 2 -80 16 3 9 6 18 6 20 0 2 29 4 64 4 55 0 64
3 69 20 5 18 0 20 -58 20 -58 0 -63 2 -58 20 5 18 14 20 83 20 74 0 90 6 90
36 0 2 -45 4 -100 4 l-99 0 -10 -37z"/>
<path fill="#1864AB" d="M2375 1583 c-8 -62 -31 -113 -50 -113 -8 0 -15 -8 -15 -17 0 -10 -3
-28 -6 -40 -9 -34 33 -32 46 2 9 24 13 25 101 25 l91 0 -6 -26 c-6 -22 -4 -25
16 -22 15 2 24 13 31 38 6 23 5 36 -2 38 -13 4 -14 59 -2 120 l8 42 -103 0
-103 0 -6 -47z m160 -40 c-4 -32 -9 -61 -12 -65 -2 -5 -31 -8 -63 -8 l-59 0
15 28 c7 15 14 41 14 58 0 41 5 44 63 44 l49 0 -7 -57z"/>
<path fill="#1864AB" d="M2675 1618 c-8 -27 -35 -158 -35 -173 0 -13 14 -15 97 -13 84 3 98 6
101 21 3 15 -6 17 -78 17 -72 0 -81 2 -78 18 2 13 17 18 68 22 51 4 66 9 68
23 3 15 -5 17 -58 17 -53 0 -61 2 -58 18 3 14 18 18 88 22 70 4 85 8 88 23 3
15 -7 17 -98 17 -72 0 -102 -4 -105 -12z"/>
<path fill="#1864AB" d="M2946 1593 c-4 -21 -13 -64 -20 -95 -14 -55 -13 -58 5 -58 12 0 21 9
25 25 6 23 11 25 59 25 74 0 103 13 120 55 19 43 19 50 -1 69 -11 12 -36 16
-98 16 l-83 0 -7 -37z m162 -30 c-3 -27 -6 -28 -65 -31 -50 -2 -63 0 -63 12 0
39 11 46 72 46 59 0 59 0 56 -27z"/>
<path fill="#1864AB" d="M3252 1613 c-19 -16 -52 -124 -52 -169 0 -21 28 -17 35 6 5 17 15 20
71 20 61 0 65 -1 59 -20 -5 -15 -2 -20 12 -20 16 0 22 15 37 86 22 108 18 114
-74 114 -50 0 -73 -5 -88 -17z m138 -40 c-1 -56 -9 -63 -77 -63 l-65 0 7 33
c11 47 11 47 76 47 50 0 59 -3 59 -17z"/>
<path fill="#1864AB" d="M3590 1617 c-14 -7 -42 -45 -68 -95 -37 -70 -41 -82 -25 -82 12 0 30
23 56 75 38 74 40 75 78 75 45 0 45 0 24 -89 -9 -35 -13 -66 -11 -69 13 -13
34 10 40 45 3 21 13 64 20 96 l14 57 -51 0 c-29 0 -63 -6 -77 -13z"/>
<path fill="#1864AB" d="M4056 1552 c-9 -43 -19 -88 -23 -100 -4 -17 -1 -22 15 -22 16 0 22 9
27 40 l7 40 65 0 65 0 -7 -40 c-5 -32 -4 -40 9 -40 16 0 22 18 49 138 13 58
13 62 -3 62 -13 0 -21 -12 -27 -37 l-9 -38 -67 -3 c-51 -2 -66 0 -63 10 17 53
16 68 -2 68 -16 0 -22 -14 -36 -78z"/>
<path fill="#1864AB" d="M4368 1611 c-32 -26 -59 -141 -38 -166 15 -18 130 -21 160 -5 23 13
53 106 48 152 l-3 33 -71 3 c-58 2 -75 -1 -96 -17z m129 -19 c16 -10 -3 -103
-25 -119 -18 -15 -80 -17 -101 -4 -11 7 -11 18 -2 62 7 29 17 57 24 61 15 10
88 10 104 0z"/>
<path fill="#1864AB" d="M4601 1540 c-12 -51 -21 -96 -21 -101 0 -5 45 -9 99 -9 96 0 111 5
111 36 0 2 -36 4 -80 4 -73 0 -80 2 -80 20 0 18 7 20 64 20 60 0 76 8 76 36 0
2 -27 4 -61 4 -52 0 -60 2 -57 18 3 14 18 18 88 22 67 4 85 8 85 20 0 12 -19
16 -102 18 l-101 3 -21 -91z"/>
<path fill="#1864AB" d="M5080 1595 c0 -43 -24 -105 -49 -125 -10 -8 -21 -27 -25 -42 -6 -25
-3 -28 18 -28 15 0 25 7 29 20 5 18 14 20 97 20 88 0 92 -1 87 -21 -4 -16 -1
-20 16 -17 24 3 44 58 25 69 -10 7 -4 110 9 145 4 12 -13 14 -101 14 l-106 0
0 -35z m153 -2 c3 -5 0 -34 -5 -65 l-10 -58 -60 0 c-44 0 -58 3 -54 13 4 10
19 58 32 105 4 13 90 17 97 5z"/>
<path fill="#1864AB" d="M5393 1615 c-19 -13 -28 -40 -48 -138 -6 -32 22 -47 91 -47 54 0 69
4 88 23 29 29 53 141 35 163 -16 20 -137 19 -166 -1z m125 -23 c10 -7 10 -19
2 -57 -15 -65 -25 -75 -74 -75 -64 0 -71 8 -56 69 7 28 19 55 29 61 20 12 81
13 99 2z"/>
<path fill="#1864AB" d="M5635 1538 c-21 -104 -21 -101 -6 -106 6 -2 16 10 22 26 10 28 13 30
81 34 84 6 108 26 108 88 0 46 -8 50 -109 50 l-77 0 -19 -92z m170 42 c3 -5 1
-19 -5 -30 -9 -17 -21 -20 -70 -20 -33 0 -60 3 -60 8 0 4 3 17 6 30 6 20 13
22 65 22 32 0 61 -4 64 -10z"/>
<path fill="#1864AB" d="M5941 1609 c-19 -21 -41 -97 -41 -143 0 -30 16 -36 95 -36 77 0 96
15 113 91 24 103 19 109 -83 109 -53 0 -68 -4 -84 -21z m132 -68 c-3 -67 -15
-81 -67 -81 -61 0 -69 9 -61 64 10 63 26 78 84 74 l46 -3 -2 -54z"/>
<path fill="#1864AB" d="M6545 1553 c-9 -43 -19 -89 -22 -101 -5 -19 -2 -23 13 -20 12 2 21
16 27 41 l9 37 64 0 64 0 -6 -40 c-5 -33 -4 -40 10 -40 8 0 18 10 21 23 42
189 40 177 20 177 -8 0 -19 -16 -25 -40 l-11 -40 -65 0 c-61 0 -65 1 -60 20 3
11 9 29 12 40 4 15 1 20 -14 20 -17 0 -23 -13 -37 -77z"/>
<path fill="#1864AB" d="M6851 1611 c-19 -19 -41 -99 -41 -146 0 -30 23 -37 104 -33 72 4 91
24 108 116 14 78 10 82 -84 82 -54 0 -72 -4 -87 -19z m134 -22 c11 -16 -5 -97
-21 -114 -18 -17 -99 -21 -109 -4 -11 16 5 97 21 114 18 17 99 21 109 4z"/>
<path fill="#1864AB" d="M7117 1623 c-3 -5 -12 -42 -21 -83 -9 -41 -19 -83 -22 -93 -5 -16 2
-17 98 -15 89 3 103 5 106 21 3 15 -6 17 -78 17 -72 0 -81 2 -78 18 2 13 17
18 68 22 51 4 66 9 68 23 3 15 -5 17 -58 17 -53 0 -61 2 -58 18 3 14 18 18 88
22 70 4 85 8 88 23 3 15 -7 17 -97 17 -55 0 -102 -3 -104 -7z"/>
<path fill="#1864AB" d="M7515 1620 c-31 -12 -41 -29 -53 -90 -8 -45 -8 -59 4 -77 13 -21 22
-23 102 -23 93 0 125 12 135 50 7 27 -26 27 -53 0 -17 -17 -31 -20 -83 -18
l-62 3 1 36 c1 19 4 48 8 62 6 26 9 27 80 27 56 0 75 -4 80 -15 3 -8 15 -15
26 -15 30 0 23 41 -10 57 -28 14 -144 16 -175 3z"/>
<path fill="#1864AB" d="M8910 1548 c-12 -46 -24 -91 -26 -100 -5 -16 4 -18 100 -18 88 0 106
3 106 15 0 12 -16 15 -81 15 -78 0 -80 1 -77 23 3 20 9 22 71 25 51 2 67 6 67
17 0 12 -14 15 -60 15 -60 0 -66 4 -54 34 5 13 23 16 89 16 74 0 83 2 88 20 5
19 0 20 -98 20 l-103 0 -22 -82z"/>
<path fill="#1864AB" d="M9437 1530 c-24 -97 -24 -100 -5 -100 10 0 53 30 96 66 42 36 78 61
80 55 2 -5 -4 -33 -12 -62 -19 -64 -20 -59 2 -59 15 0 24 17 42 88 13 48 25
93 28 100 11 32 -40 6 -115 -58 -45 -39 -83 -70 -86 -70 -3 0 1 19 8 43 26 91
27 97 6 97 -15 0 -23 -17 -44 -100z"/>
<path fill="#1864AB" d="M9725 1618 c-10 -32 -45 -169 -45 -178 0 -6 40 -10 99 -10 96 0 111
5 111 36 0 2 -38 4 -84 4 -79 0 -84 1 -79 20 4 16 15 20 71 22 54 2 67 6 70
21 3 15 -5 17 -57 17 -54 0 -61 2 -61 20 0 19 7 20 90 20 83 0 90 1 90 20 0
19 -7 20 -100 20 -72 0 -102 -4 -105 -12z"/>
<path fill="#1864AB" d="M1791 1594 c-25 -32 -28 -89 -5 -98 9 -3 29 -6 45 -6 26 0 28 -2 23
-30 -5 -24 -3 -30 10 -30 10 0 19 11 22 29 5 25 12 29 47 34 44 6 73 31 83 73
12 49 2 54 -105 54 -96 0 -100 -1 -120 -26z m99 -8 c0 -3 -4 -16 -10 -30 -7
-20 -16 -26 -40 -26 -30 0 -37 11 -24 44 4 10 18 16 40 16 19 0 34 -2 34 -4z
m90 -10 c0 -32 -13 -46 -41 -46 -24 0 -29 4 -29 23 0 31 7 37 42 37 17 0 28
-5 28 -14z"/>
<path fill="#1864AB" d="M3794 1593 c-3 -16 -12 -53 -20 -84 -8 -31 -14 -62 -14 -68 0 -7 28
-11 79 -11 100 0 124 15 125 81 l1 44 -72 3 c-40 2 -73 5 -73 7 0 2 4 15 10
29 8 22 7 26 -10 26 -13 0 -22 -9 -26 -27z m141 -73 c3 -5 1 -19 -5 -30 -9
-17 -21 -20 -70 -20 -33 0 -60 3 -60 8 0 4 3 17 6 30 6 20 13 22 65 22 32 0
61 -4 64 -10z"/>
<path fill="#1864AB" d="M6220 1615 c0 -2 9 -19 20 -37 11 -18 20 -39 20 -46 0 -8 -21 -33
-47 -57 -45 -42 -47 -44 -23 -45 17 0 39 14 65 40 21 22 43 40 47 40 5 0 5
-18 2 -40 -5 -33 -4 -40 9 -40 10 0 20 15 27 40 6 22 15 40 20 40 5 0 19 -18
30 -40 13 -26 27 -40 40 -40 25 0 25 6 -5 55 l-25 40 47 47 c44 45 45 48 23
48 -15 0 -41 -16 -68 -42 l-45 -43 7 43 c5 37 4 42 -13 42 -14 0 -21 -10 -25
-35 -4 -19 -11 -35 -15 -35 -5 0 -18 16 -30 35 -13 22 -28 35 -41 35 -11 0
-20 -2 -20 -5z"/>
<path fill="#1864AB" d="M7762 1533 c-26 -104 -26 -103 -7 -103 16 0 19 5 29 53 6 26 9 27 72
27 l66 0 -7 -40 c-6 -35 -4 -40 12 -40 15 0 23 16 41 91 12 51 20 94 18 97
-13 12 -34 -10 -40 -42 l-7 -36 -66 0 -66 0 7 40 c5 34 4 40 -12 40 -14 0 -22
-19 -40 -87z"/>
<path fill="#1864AB"  d="M8056 1598 c-8 -13 -24 -56 -35 -95 -19 -71 -19 -73 -1 -73 10 0 22
9 25 20 5 17 15 20 71 20 58 0 64 -2 64 -21 0 -14 5 -19 17 -17 12 2 23 25 36
80 11 43 17 85 13 93 -4 12 -24 15 -90 15 -78 0 -87 -2 -100 -22z m150 -40
c-10 -50 -22 -58 -88 -58 l-60 0 7 33 c11 50 22 57 87 57 l61 0 -7 -32z"/>
<path fill="#1864AB" d="M8299 1528 l-25 -93 75 -3 c100 -4 119 2 136 41 22 52 6 67 -69 67
-70 0 -76 3 -69 31 5 17 14 19 78 19 56 0 74 4 79 15 4 13 -9 15 -88 15 l-93
0 -24 -92z m151 -37 c0 -24 -19 -31 -81 -31 -41 0 -49 3 -49 18 0 28 8 32 72
32 50 0 58 -3 58 -19z"/>
<path fill="#1864AB" d="M8600 1615 c0 -4 10 -25 22 -46 l22 -39 -49 -50 c-38 -39 -45 -50
-30 -50 10 0 40 18 66 40 26 22 50 40 53 40 2 0 0 -15 -5 -32 -12 -45 -12 -48
10 -48 15 0 21 10 26 40 4 22 12 40 19 40 7 0 21 -18 31 -40 14 -30 24 -40 42
-40 l23 0 -24 48 -24 47 46 48 c39 39 43 47 26 47 -12 0 -43 -19 -69 -42 l-48
-43 6 43 c6 37 5 42 -12 42 -15 0 -21 -10 -26 -40 -4 -22 -10 -40 -13 -40 -4
0 -16 17 -27 38 -12 23 -29 38 -42 40 -13 2 -23 0 -23 -3z"/>
<path fill="#1864AB" d="M9172 1533 c-26 -103 -26 -103 -7 -103 8 0 19 16 25 40 l11 40 65 0
66 0 -7 -41 c-6 -36 -5 -40 11 -37 13 2 24 26 42 91 13 49 21 91 18 94 -13 13
-34 -8 -40 -41 l-7 -36 -66 0 -66 0 7 40 c5 34 4 40 -12 40 -14 0 -22 -19 -40
-87z"/>
<path fill="#1864AB" d="M2673 1246 c-60 -19 -103 -54 -124 -100 -21 -49 -71 -335 -65 -372 7
-35 31 -70 63 -91 23 -16 58 -18 256 -21 249 -4 300 2 355 44 52 40 70 90 97
265 28 175 26 207 -18 247 -12 11 -40 25 -62 31 -58 16 -449 13 -502 -3z m432
-120 c19 -14 19 -17 -4 -159 -13 -79 -26 -149 -30 -154 -17 -27 -56 -33 -221
-33 -99 0 -179 4 -191 10 -24 13 -24 38 1 176 27 152 28 154 53 164 12 5 101
9 198 9 135 1 180 -2 194 -13z"/>
<path fill="#1864AB" d="M3492 1245 c-107 -33 -132 -76 -167 -288 -16 -92 -24 -172 -21 -191
8 -43 48 -83 95 -96 47 -13 455 -13 502 0 81 23 138 90 155 183 l6 37 -75 0
-75 0 -11 -45 c-6 -25 -19 -49 -30 -55 -31 -16 -373 -13 -396 4 -19 14 -19 17
4 159 13 79 26 149 30 154 17 27 56 33 221 33 99 0 179 -4 191 -10 13 -8 19
-21 19 -45 l0 -35 74 0 74 0 6 35 c15 78 -20 139 -93 164 -50 16 -453 14 -509
-4z"/>
<path fill="#1864AB" d="M4295 1163 c-8 -136 -30 -228 -69 -298 -31 -57 -35 -60 -74 -63 -24
-2 -42 -8 -43 -15 0 -7 -4 -33 -8 -59 l-8 -48 414 0 c387 0 413 1 413 18 0 9
3 34 6 55 l7 37 -37 0 c-36 0 -37 1 -32 28 3 15 17 92 31 172 14 80 30 163 35
185 5 22 10 50 10 63 l0 22 -319 0 -319 0 -7 -97z m465 -27 c0 -2 -11 -76 -25
-163 -14 -87 -25 -164 -25 -170 0 -10 -41 -13 -170 -13 -93 0 -170 2 -170 5 0
2 11 20 24 40 25 36 56 149 56 202 0 15 3 45 6 66 l7 37 148 0 c82 0 149 -2
149 -4z"/>
<path fill="#1864AB" d="M5245 1251 c-28 -5 -69 -18 -93 -30 -67 -34 -88 -79 -117 -243 -14
-78 -25 -160 -25 -181 0 -56 25 -96 73 -118 37 -16 68 -19 267 -19 235 0 271
5 326 42 51 35 73 86 100 231 30 169 31 225 2 262 -40 51 -75 58 -288 61 -107
1 -218 -1 -245 -5z m389 -133 c13 -20 12 -39 -10 -163 -19 -110 -29 -144 -45
-157 -19 -16 -44 -18 -200 -18 -162 0 -181 2 -198 19 -11 11 -17 28 -15 42 32
208 46 265 65 282 19 15 45 17 205 17 179 0 184 -1 198 -22z"/>
<path fill="#1864AB" d="M6830 1245 c-51 -16 -107 -65 -126 -110 -7 -17 -24 -101 -39 -188
-29 -172 -26 -204 18 -245 39 -36 99 -44 338 -40 195 3 229 5 262 22 50 25 84
71 107 145 l18 61 -78 0 -78 0 -7 -40 c-11 -66 -24 -70 -231 -70 -235 0 -222
-13 -189 180 20 118 28 148 46 163 18 15 45 17 203 17 128 0 186 -4 194 -12 7
-7 12 -27 12 -45 l0 -33 74 0 c82 0 86 3 86 71 0 55 -22 93 -67 115 -33 17
-65 19 -268 21 -176 2 -241 -1 -275 -12z"/>
<path fill="#1864AB" d="M8510 1251 c-97 -18 -154 -62 -180 -137 -8 -24 -80 -417 -80 -438 0
-4 35 -6 77 -4 l78 3 8 53 9 52 219 0 220 0 -6 -37 c-4 -21 -9 -46 -12 -55 -4
-16 4 -18 74 -18 l79 0 37 208 c43 243 45 279 15 317 -40 51 -74 58 -293 61
-110 2 -220 -1 -245 -5z m381 -121 c22 -13 24 -49 6 -155 l-12 -70 -210 -3
c-115 -1 -215 0 -221 2 -9 3 -7 29 5 99 18 101 29 123 64 130 48 9 349 7 368
-3z"/>
<path fill="#1864AB" d="M5895 1238 c-5 -17 -95 -540 -95 -556 0 -8 22 -12 74 -12 84 0 72
-15 97 118 l12 62 222 0 c139 0 235 4 256 11 81 28 126 84 149 190 23 102 -9
165 -95 188 -60 16 -614 15 -620 -1z m551 -130 c13 -13 15 -26 10 -63 -13 -84
-16 -85 -251 -85 l-204 0 5 33 c3 17 10 56 16 85 l10 53 198 -3 c170 -3 202
-5 216 -20z"/>
<path fill="#1864AB" d="M7517 1153 c-9 -54 -32 -185 -50 -290 l-34 -193 77 0 78 0 17 98 c9
53 19 105 21 115 5 15 24 17 220 17 l214 0 0 -22 c0 -13 -7 -58 -15 -101 -22
-114 -26 -107 60 -107 69 0 75 2 80 23 6 25 95 543 95 552 0 3 -35 5 -77 3
l-78 -3 -6 -40 c-4 -22 -12 -73 -19 -112 l-12 -73 -219 0 c-120 0 -219 3 -219
8 0 4 7 43 15 87 8 44 17 92 20 108 l5 27 -79 0 -78 0 -16 -97z"/>
<path fill="#1864AB" d="M1740 1237 c0 -1 -20 -117 -44 -257 -25 -140 -46 -268 -48 -283 l-3
-29 75 0 75 0 15 83 15 84 235 5 c256 6 279 10 332 66 38 41 57 91 64 173 8
85 -6 113 -69 142 -38 17 -69 19 -344 19 -167 0 -303 -1 -303 -3z m553 -125
c14 -15 15 -27 8 -66 -15 -81 -14 -81 -246 -84 -113 -2 -205 0 -205 5 0 15 21
138 25 151 3 9 53 12 203 12 180 0 200 -2 215 -18z"/>
<path fill="#1864AB" d="M9165 1228 c-5 -15 -95 -535 -95 -549 0 -5 127 -9 308 -9 278 0 311
2 347 19 80 37 117 96 118 188 2 68 -23 102 -89 125 -40 14 -88 17 -260 18
l-211 0 8 43 c4 23 8 45 9 50 0 4 117 7 259 7 l259 0 6 30 c3 17 9 44 12 60
l6 30 -337 0 c-259 0 -337 -3 -340 -12z m495 -337 c19 -5 26 -15 28 -38 6 -60
-6 -63 -238 -63 l-209 0 6 33 c16 83 1 77 205 76 101 -1 194 -4 208 -8z"/>
</g>
</svg>
